<?xml version="1.0" encoding="utf-8"?>
<!-- Generator: Adobe Illustrator 13.0.0, SVG Export Plug-In . SVG Version: 6.00 Build 14948)  -->
<!DOCTYPE svg PUBLIC "-//W3C//DTD SVG 1.0//EN" "http://www.w3.org/TR/2001/REC-SVG-20010904/DTD/svg10.dtd">
<svg version="1.0" xmlns="http://www.w3.org/2000/svg" xmlns:xlink="http://www.w3.org/1999/xlink" x="0px" y="0px"
	 width="463.75px" height="527.47px" viewBox="0 0 463.75 527.47" enable-background="new 0 0 463.75 527.47" xml:space="preserve">
<g id="background_color">
	<g id="gray">
		<g>
			<rect x="0.5" y="0.5" fill="#F8F8F8" width="462.75" height="526.47"/>
		</g>
	</g>
	<g id="shadow">
		<g>
			<path fill="#C6C7C9" d="M387.725,65.478c-17.989-1.84-34.789-3.65-44.939-4.95c-0.021,0-0.04-0.01-0.061-0.01
				c-6.625-0.839-14.989-1.963-24.51-3.272c0.001-0.021,0.002-0.039,0.002-0.047c0-0.26-7.59-1.084-10.122-1.352
				c-0.782-0.108-1.567-0.218-2.359-0.328c0.01,0.011,0.021,0.02,0.031,0.031c-2.208-0.309-6.369-0.89-9.296-1.292l-0.096-0.048
				c-19.29-2.71-40.98-5.83-61.91-8.86c-28.57-4.14-55.73-8.12-73.51-10.74c-12.189-1.8-19.97-2.95-20.76-3.07l-2.53,15.85
				l-7.145,44.667l-0.02,0.029l-0.1,0.714l-0.277,1.73l0.03,0.04c0,0-2.025,3.286-2.46,3.721c-0.435,0.435-1.977,2.371-2.174,2.648
				c-0.197,0.277-1.225,3.202-1.542,3.874c-0.316,0.672-1.344,1.226-2.055,1.265c-0.711,0.039-4.071-0.277-5.02-0.356
				c-0.948-0.079-2.885-1.028-3.201-1.423c-0.316-0.396-1.463-4.625-2.095-6.641c-0.632-2.016-1.7-2.213-2.451-2.292
				c-0.751-0.079-3.241-0.514-3.834-0.593c-0.593-0.079-2.292-0.83-3.399-1.186c-1.107-0.356-3.834,0-5.692,0.276
				c-1.858,0.277-5.178,1.107-6.877,1.502c-1.7,0.396-2.292,1.7-2.767,2.688c-0.475,0.988-0.87,3.794-0.87,3.794l0.077,0.029
				c-0.062,0.884-0.108,2.995,0.659,4.822c1,2.38,2,3.5,2.62,4c0.63,0.5,2.13,2.5,1.38,2.88c-0.75,0.37-1.88,1-2,1.87
				s-1.12,4.5-1.38,5.37c-0.24,0.88-1,4.13-0.5,4.88s0.5,1.5,0.63,2.5s0.5,3,0.63,4.12c0.12,1.13,0.62,2.26,0.37,3
				c-0.25,0.76-1.13,2.63-1.25,3.63s-0.5,5.5-0.5,6.5s0.38,5.25,0.5,6.13c0.12,0.87,1,6.5,1.12,8.24c0.13,1.76-0.12,8-0.37,8.88
				s-0.75,2-1.63,2.12c-0.87,0.13-3.24,0.13-3.12,1.38s0.5,4.75,0,6c-0.37,0.93-0.88,2.28-1.18,3.32c-0.1,0.36-0.17,0.68-0.2,0.93
				c-0.12,1-0.37,1.5,0,2.25c0.38,0.75,0.26,2.75,0.5,3.62c0.26,0.88,0.38,1.38,0.88,2c0.5,0.63,0.75,1.5,0.75,2.26
				c0,0.74,0,2.5,0.25,3.24c0.25,0.76,4.75,7,5,8s0.62,4.26,0.88,5.26c0.24,1,0.87,6.12,0.87,7.12s-0.37,5.25-0.25,6.12
				c0.12,0.88,0.38,2.63,2.25,3.5c1.87,0.88,6.63,4.63,7.63,5.38s1.37,1.25,2,2.12c0.62,0.88,2.62,2.13,2.5,3.13
				c-0.13,1,0.24,2.75-0.5,3c-0.76,0.25-1.63,1.37-2.13,2s-1,1.25-1.75,1.5s-1.38,0.37-1.88,1.25s-2.24,1.62-2.74,2.12
				s-5.26,2.5-6.88,3.13s-3.38,1.63-3.88,2.5s-2.24,4.37-2.87,5.13c-0.63,0.74-2.13,3.37-2.87,3.62c-0.76,0.25-2.63,0.62-2.76,1.38
				c-0.12,0.74-0.87,2.5-0.5,3.5c0.38,1,1.13,1.74,0.63,2.37s-1,2.13-0.87,3c0.12,0.87-0.13,5.87-0.63,6.87s-1.25,1.76-1.5,2.76
				s-0.13,2.24-0.63,2.74s-1.12,1.76-1.12,2.13s-0.38,1.25-0.5,2.13c-0.12,0.87,0.12,2.87-0.38,3.24c-0.5,0.38-1.74,1.63-2,2.26
				c-0.24,0.62-0.62,2.5-1.62,2.62s-2.5,0.12-3,0.88c-0.5,0.74-1.75,2.87-2.75,2.74c-1-0.12-2.87-0.37-2.87,0.76
				c0,1.12,0,3-0.63,3.74c-0.63,0.76-1.63,2.5-1.75,3.5s0,3.5,0.25,4.38s0.37,2,0.13,2.62c-0.26,0.63-0.5,1.38-0.5,2.38
				s0,1.88-0.38,2.38s-1.12,3.5-0.88,4.5c0.26,1,0.5,3.24,1.5,3.5c1,0.24,3.88,1.24,4.5,1.24c0.63,0,4.38,0.88,5,1.5l0.01,0.01
				c0.63,0.62,1.12,0.88,1.49,1.99c0.38,1.13,1.38,3,0.88,4.13s-0.88,1.87-0.88,2.75s0.13,6.38-0.87,7s-3.63,1.25-4.37,2.75
				c-0.34,0.681-0.74,2-1.21,3.25c-0.56,1.521-1.23,2.931-2.05,3c-1.5,0.12-4.24,0.38-5.12-0.12s-2.5-2.13-3.75-1.38
				s-2.63,2.62-4,3.25s-3.25,1.75-3.75,2.5s-1.62,2.25-1.25,3s0.75,1.37,0.25,1.87s-0.75,1.13-0.62,1.76
				c0.12,0.62-0.13,1.12-0.63,1.74c-0.28,0.351-0.6,0.74-0.82,1.17l0.07,0.04l89.77,46.28l122.24,63.02l23.99,12.37l35,4.22
				l17.71,2.141l72.32,8.72l8.979-86.3l2.04-19.59l4.32-41.51l4.25-40.82l0.36-3.41l25.229-242.43
				C430.135,69.718,408.165,67.578,387.725,65.478z M136.773,242.858c0.161-0.028,0.31-0.067,0.46-0.105l0,0
				C137.083,242.791,136.934,242.83,136.773,242.858c-0.709,0.125-1.499,0.167-2.215,0.179
				C135.275,243.025,136.064,242.982,136.773,242.858z"/>
		</g>
	</g>
	<g id="arizona">
		<g>
			<path fill="#EDE9EF" d="M384.89,63.21c-17.989-1.84-34.789-3.65-44.939-4.95c-0.021,0-0.04-0.01-0.061-0.01
				c-6.625-0.84-14.988-1.964-24.51-3.272c0.001-0.021,0.002-0.04,0.002-0.047c0-0.26-7.59-1.084-10.122-1.352
				c-0.782-0.109-1.566-0.218-2.359-0.328c0.01,0.011,0.021,0.02,0.031,0.031c-2.208-0.309-6.368-0.89-9.296-1.292l-0.096-0.048
				c-19.29-2.71-40.98-5.83-61.91-8.86c-28.57-4.14-55.73-8.12-73.51-10.74c-12.19-1.8-19.97-2.95-20.76-3.07l-2.53,15.85
				l-7.145,44.666l-0.02,0.029l-0.099,0.715l-0.277,1.73l0.03,0.04c0,0-2.025,3.286-2.46,3.721
				c-0.435,0.435-1.976,2.372-2.174,2.648s-1.225,3.202-1.542,3.874s-1.344,1.225-2.055,1.265s-4.071-0.276-5.02-0.355
				s-2.885-1.028-3.202-1.423c-0.316-0.396-1.462-4.625-2.095-6.641c-0.632-2.016-1.7-2.213-2.451-2.292s-3.241-0.514-3.834-0.593
				s-2.292-0.83-3.399-1.186c-1.106-0.355-3.834,0-5.691,0.277c-1.858,0.277-5.178,1.107-6.877,1.502
				c-1.7,0.396-2.292,1.7-2.767,2.688c-0.474,0.988-0.87,3.794-0.87,3.794l0.077,0.029c-0.062,0.884-0.108,2.996,0.66,4.823
				c1,2.38,2,3.5,2.62,4c0.63,0.5,2.13,2.5,1.38,2.88c-0.75,0.37-1.88,1-2,1.87s-1.12,4.5-1.38,5.37c-0.24,0.88-1,4.13-0.5,4.88
				s0.5,1.5,0.63,2.5s0.5,3,0.63,4.12c0.12,1.13,0.62,2.26,0.37,3c-0.25,0.76-1.13,2.63-1.25,3.63s-0.5,5.5-0.5,6.5
				s0.38,5.25,0.5,6.13c0.12,0.87,1,6.5,1.12,8.24c0.13,1.76-0.12,8-0.37,8.88s-0.75,2-1.63,2.12c-0.87,0.13-3.24,0.13-3.12,1.38
				s0.5,4.75,0,6c-0.37,0.93-0.88,2.28-1.18,3.32c-0.1,0.36-0.17,0.68-0.2,0.93c-0.12,1-0.37,1.5,0,2.25
				c0.38,0.75,0.26,2.75,0.5,3.62c0.26,0.88,0.38,1.38,0.88,2c0.5,0.63,0.75,1.5,0.75,2.26c0,0.74,0,2.5,0.25,3.24
				c0.25,0.76,4.75,7,5,8s0.62,4.26,0.88,5.26c0.24,1,0.87,6.12,0.87,7.12s-0.37,5.25-0.25,6.12c0.12,0.88,0.38,2.63,2.25,3.5
				c1.87,0.88,6.63,4.63,7.63,5.38s1.37,1.25,2,2.12c0.62,0.88,2.62,2.13,2.5,3.13c-0.13,1,0.24,2.75-0.5,3
				c-0.76,0.25-1.63,1.37-2.13,2s-1,1.25-1.75,1.5s-1.38,0.37-1.88,1.25s-2.24,1.62-2.74,2.12s-5.26,2.5-6.88,3.13
				s-3.38,1.63-3.88,2.5s-2.24,4.37-2.87,5.13c-0.63,0.74-2.13,3.37-2.87,3.62c-0.76,0.25-2.63,0.62-2.76,1.38
				c-0.12,0.74-0.87,2.5-0.5,3.5c0.38,1,1.13,1.74,0.63,2.37s-1,2.13-0.87,3c0.12,0.87-0.13,5.87-0.63,6.87s-1.25,1.76-1.5,2.76
				s-0.13,2.24-0.63,2.74s-1.12,1.76-1.12,2.13s-0.38,1.25-0.5,2.13c-0.12,0.87,0.12,2.87-0.38,3.24c-0.5,0.38-1.74,1.63-2,2.26
				c-0.24,0.62-0.62,2.5-1.62,2.62s-2.5,0.12-3,0.88c-0.5,0.74-1.75,2.87-2.75,2.74c-1-0.12-2.87-0.37-2.87,0.76
				c0,1.12,0,3-0.63,3.74c-0.63,0.76-1.63,2.5-1.75,3.5s0,3.5,0.25,4.38s0.37,2,0.13,2.62c-0.26,0.63-0.5,1.38-0.5,2.38
				s0,1.88-0.38,2.38s-1.12,3.5-0.88,4.5c0.26,1,0.5,3.24,1.5,3.5c1,0.24,3.88,1.24,4.5,1.24c0.63,0,4.38,0.88,5,1.5l0.01,0.01
				c0.63,0.62,1.12,0.88,1.49,1.99c0.38,1.13,1.38,3,0.88,4.13s-0.88,1.87-0.88,2.75s0.13,6.38-0.87,7s-3.63,1.25-4.37,2.75
				c-0.34,0.68-0.74,2-1.21,3.25c-0.56,1.52-1.23,2.93-2.05,3c-1.5,0.12-4.24,0.38-5.12-0.12s-2.5-2.13-3.75-1.38s-2.63,2.62-4,3.25
				s-3.25,1.75-3.75,2.5s-1.62,2.25-1.25,3s0.75,1.37,0.25,1.87s-0.75,1.13-0.62,1.76c0.12,0.62-0.13,1.12-0.63,1.74
				c-0.28,0.35-0.6,0.74-0.82,1.17l0.07,0.04l89.77,46.28l122.24,63.02l23.99,12.37l35,4.22l17.71,2.141l72.32,8.72l8.979-86.3
				l2.04-19.591l4.32-41.51l4.25-40.819l0.36-3.41L442.83,68.95C427.3,67.45,405.33,65.31,384.89,63.21z M133.938,240.59
				c0.161-0.028,0.31-0.068,0.46-0.105l0,0C134.248,240.522,134.1,240.562,133.938,240.59c-0.708,0.125-1.498,0.167-2.214,0.178
				C132.44,240.757,133.23,240.715,133.938,240.59z"/>
		</g>
	</g>
</g>
<g id="outline">
	<g id="border">
		<g id="county">
			<g>
				<polyline fill="none" stroke="#9C9D9F" stroke-width="0.7087" stroke-miterlimit="10" points="63.37,327.43 76.87,329.93 
					82.12,300.68 104.37,303.93 103.87,308.43 140.62,313.68 				"/>
			</g>
			<g>
				<path fill="none" stroke="#9C9D9F" stroke-width="0.7087" stroke-miterlimit="10" d="M265.37,280.68c0-1.75,1.75-2.75,2.5-3
					s0.5-2.25,0.25-3.5s-0.25-4.25-0.25-4.25l-16.75-2.25l0.033-0.057c-0.215-0.403-0.426-0.758-0.533-1.026
					c-0.334-0.833,0.5-1.167,1.334-2.167c0.833-1,0.666-1.5,0.666-2.5s0.834-1.167,1.334-1.5s0.333-2.167,0.333-3.167s1-2,1.833-3
					c0.261-0.312,0.276-0.658,0.166-1.02l-0.166,0.187c0,0,1.25-3.5,2.25-3.75s6.25-1.5,7.25-2.75s2-3.5,2.75-4.25s3.25-1.5,2.75,0
					s-2.5,4-1.25,4.25s4.25-1.5,4.25,0.25s-0.5,4.75,0.75,4.75s1.5-2.5,1.5-2.5s1-0.75,2.5-0.5s4.75-1,5.75,0s1.75,2.75,3,3.25
					s2.75,1.75,4,1.75s1.75-0.75,3.25,0.25s1.5,2.75,3,3s2.75,1.5,3.75,2.25s4,1.75,4.75,3s2,3.25,2.75,3s-0.5-3.75,1-3.5
					s4,0,4,1.25s-1,2.5,0.75,3"/>
			</g>
			<g>
				<path fill="none" stroke="#9C9D9F" stroke-width="0.7087" stroke-miterlimit="10" d="M164.87,147.18c0,0,6.75,2.5,7.5,3.25
					s4.75,1.5,4.75,1.5s2,2.25,2.75,3s4,2.5,4.5,3.5s4,6.75,4,6.75s11.25,5.75,12.5,5.75s5,0,5.75,1s2.5,3.75,4,4.5s8,1,8,1
					l-0.75,7.75l6.5,1.25l-2,13l35.25,4.5l-1.75,13l14,2l-3.5,27"/>
			</g>
			<g>
				<path fill="none" stroke="#9C9D9F" stroke-width="0.7087" stroke-miterlimit="10" d="M231.62,43.18c0,0,0.5,1.5-0.25,3
					s-1.5,5.25-2.25,5.75s-1.75,2.5-2.25,3.25s-2.5,4.5-2.5,5.5s-1,3-1.75,4.75s-0.75,2.75-0.5,4.25s0.25,3.5-1,5s-2.5,3-2,3.75
					s2.75,3,1.5,4s-1.5,3.5-1,5.25l-0.098,0.208c-0.321-0.086-0.598-0.164-0.777-0.208c-0.5-0.125-3,2.125-4,2.625
					s-2.125,0-2.75-0.25s-1.5,0.5-2,0.875s-1.75,1.125-2.375,1.875s-2.375,1.375-2.875,1.625s-2.25,1.125-3.125,1.25
					s-1.75,0.875-3.125,1.125s-2,0.25-2.625,0.625s-2.375,0-3.125,0.125s-4.5,1.25-5.125,1.5s-2.375,0.875-3.25,0.75
					s-3.625,1.5-4.125,2s-3,2.875-3.75,3.5s-3.125-0.375-4.125-0.375s-1.375,1.375-1.875,2.375s-1,1.375-1.625,1.5
					s0.875,3.5,1.5,4.625s0.625,2,0.125,3.25s0.25,3.25,0.125,4.375s-0.75,2.25-1.5,3.25s-0.75,2.375-1,3.25
					c-0.042,0.148-0.149,0.293-0.301,0.432l0.051-0.057l-41.5,284.75"/>
			</g>
			<g>
				<path fill="none" stroke="#9C9D9F" stroke-width="0.7087" stroke-miterlimit="10" d="M151.534,239.499
					c-0.198,0.104-0.392,0.195-0.58,0.265c-1.333,0.5-3.603-0.044-4.5-0.333c-2.391-0.771-3.996-1.229-5.83-1
					c-1.834,0.229-5.17,1.667-5.17,1.667c-1.333,0.833-4.333,0.667-5.5,0.667s-4-1.167-5.167-1.5s-2,0.333-3.167,0.667
					s-2.333-0.833-4-2s-1.667-0.167-2.5,0s-2.167-0.667-2.833-1.333s-2.333,0-3.5-0.167s-1.333-0.5-1.833-1.167
					s-2.333-0.667-3.167-0.667s-1.792-0.417-1.792-0.417"/>
			</g>
			<g>
				<path fill="none" stroke="#9C9D9F" stroke-width="0.7087" stroke-miterlimit="10" d="M339.87,58.43l-27.25,228l47.25,5.5
					l-4.5,40.5c0,0-4.25-0.25-5.25-0.5s-4-1.5-4.5-0.75s-2.25,1.75-3.75,1.75s-5-0.25-6.25,0.25s-2.5,2.5-3.25,2.25s-3.5-1.25-5-0.5
					s-4,4-3.75,5.5c0,0,0.855,3.553,0.945,5.076s-0.032,4.111-0.195,4.924l-16.75,141.75"/>
			</g>
			<g>
				<path fill="none" stroke="#9C9D9F" stroke-width="0.7087" stroke-miterlimit="10" d="M147.87,263.68l39.25,6.25l24.857,11.502
					c0,0-0.292-3.367,2.309-3.502l1.667-0.333c0,0,1-0.5,1.667-1.833c0.667-1.334,1-1.667,1.667-2.5
					c0.344-0.432,0.921-1.11,1.693-1.925l0.141-0.159l29.25,7.5l18.5,2.5c0,0-1.5,4.5-0.75,5.25s1,1.5,1.75,3s2.5,3.25,2,4
					s-2.25,5.75-1.25,7s2.25,1.75,2.25,3s0,1.25,0.5,2.25s3.25,4,3.25,4s1.736-1.515,2.373-2.06c0.636-0.546,4.377-2.94,4.377-2.94
					l9.25,33.75l6.5,23.5h0.167c1-0.166,3.5-2.5,4-3.166c0.5-0.667,1.167-2.001,1.667-2.334s1.834-1.166,2-1.833
					s0.332-1.334,1.166-1.667s3.667-1,4.667-1.333s4.5-2.833,4.5-2.833s2.079-1.823,4.142-1.645c2.062,0.18,3.227,0,3.227,0"/>
			</g>
			<g>
				<polyline fill="none" stroke="#9C9D9F" stroke-width="0.7087" stroke-miterlimit="10" points="311.12,460.43 265.62,455.68 
					264.12,470.68 249.37,468.93 248.62,475.68 				"/>
			</g>
			<g>
				
					<line fill="none" stroke="#9C9D9F" stroke-width="0.7087" stroke-miterlimit="10" x1="131.37" y1="376.93" x2="318.12" y2="401.43"/>
			</g>
			<g>
				<path fill="none" stroke="#9C9D9F" stroke-width="0.7087" stroke-miterlimit="10" d="M205.62,386.68l7.75-59l0.083-0.083
					c0.833,0.833,3.833,2,4.667,3.5s0,1.5,1.167,2.5c1,0.857,2.736,1.715,3.946,2.677l0.388,0.156l28.75,3.5l2.5-20l33.853,4.239"/>
			</g>
			<g>
				
					<line fill="none" stroke="#9C9D9F" stroke-width="0.7087" stroke-miterlimit="10" x1="317.787" y1="406.597" x2="406.37" y2="416.68"/>
			</g>
			<g>
				<path fill="none" stroke="#9C9D9F" stroke-width="0.7087" stroke-miterlimit="10" d="M388.787,321.264l-4.667,45l7.667,18.166
					c0,0,1.832-0.166,2.666-0.166s3.334,2,2.834,3s-1.333,2-1,2.833s4,3.666,3.833,4.833s-0.333,3.834-0.5,5.334
					s-0.833,2.666-0.833,3.333s-1.5,4-1,4.5s0.999,1.166,1.666,1.833s3.667,6.5,3.667,6.5"/>
			</g>
			<g>
				<polyline fill="none" stroke="#9C9D9F" stroke-width="0.7087" stroke-miterlimit="10" points="384.87,63.43 374.12,164.68 
					384.12,165.68 374.12,256.68 372.87,258.18 367.12,309.18 365.12,309.18 363.37,326.68 				"/>
			</g>
			<g>
				<path fill="none" stroke="#9C9D9F" stroke-width="0.7087" stroke-miterlimit="10" d="M356.279,323.704
					c0.421,0.089,0.795,0.178,1.091,0.227c0.75,0.125,3.5,1.25,3.875,1.625s0.75,1,1.5,1s1.75,0.25,1.875,0.75s0.625,1.875,1.125,2
					s1.75,0.375,1.375,1.125s-0.75,1.75,0,1.75s1.5-0.125,2.125,0.125s1.125,0.5,1.75,0.125s1.875-2.875,2.625-3.25
					s2.75-1.375,2.625-2.125s-0.375-1.875,0.375-1.875s3.5,0.25,3.5-0.375s0.25-1.375,0.875-1.625s1.75-0.875,2.25-0.375
					s1.5,1.125,2,0.875s2.25-2.125,3.125-2.25s1.25-0.5,1.25-1s-0.25-1.5,0.375-1.75s1.125-0.75,1.625-1.25s1.375-1.25,1.875-0.875
					s1.375,0.75,2,0.75s3.5,0,2.75-0.75s-1.125-3.25-0.125-3.75c0.132-0.065,0.282-0.125,0.445-0.183l0.222-0.025l18.166,2.167"/>
			</g>
		</g>
		<g id="state">
			<g>
				<path fill="none" stroke="#9C9D9F" stroke-width="0.7087" stroke-miterlimit="10" d="M83.08,98.234
					c0-0.977,0.733-2.686,1.465-3.907c0.733-1.221,2.687-1.465,3.908-1.832c1.221-0.366,5.129-1.099,7.083-1.221
					s3.785-0.122,5.25,0.61c1.466,0.733,3.542,0.977,5.129,1.099s2.442,0.732,2.931,2.687c0.488,1.954,0.977,4.152,1.709,5.739
					c0.733,1.587,2.076,1.709,4.274,2.076s4.64,0.488,5.495,0c0.854-0.488,1.709-3.053,2.076-4.152s1.954-2.564,2.564-3.419
					c0.61-0.855,2.322-3.65,2.322-3.65l10.082-63.011l0.091,0.005c0,0,91.394,13.578,156.076,22.679l9.154,1.284
					c14.85,2.072,27.817,3.837,37.263,5.042c21.628,2.761,73.495,7.856,102.724,10.669l0.162,0.002L397.62,503.263l0.011-0.257
					L272.62,487.93l-236-121.666l-0.102,0.01c0.228-0.449,0.561-0.854,0.852-1.219c0.5-0.625,0.75-1.125,0.625-1.75
					s0.125-1.25,0.625-1.75s0.125-1.125-0.25-1.875s0.75-2.25,1.25-3s2.375-1.875,3.75-2.5s2.75-2.5,4-3.25s2.875,0.875,3.75,1.375
					s3.625,0.25,5.125,0.125s2.5-4.75,3.25-6.25s3.375-2.125,4.375-2.75s0.875-6.125,0.875-7s0.375-1.625,0.875-2.75
					s-0.5-3-0.875-4.125s-0.875-1.375-1.5-2s-4.375-1.5-5-1.5s-3.5-1-4.5-1.25s-1.25-2.5-1.5-3.5s0.5-4,0.875-4.5
					s0.375-1.375,0.375-2.375s0.25-1.75,0.5-2.375s0.125-1.75-0.125-2.625s-0.375-3.375-0.25-4.375s1.125-2.75,1.75-3.5
					s0.625-2.625,0.625-3.75s1.875-0.875,2.875-0.75s2.25-2,2.75-2.75s2-0.75,3-0.875s1.375-2,1.625-2.625s1.5-1.875,2-2.25
					s0.25-2.375,0.375-3.25s0.5-1.75,0.5-2.125s0.625-1.625,1.125-2.125s0.375-1.75,0.625-2.75s1-1.75,1.5-2.75s0.75-6,0.625-6.875
					s0.375-2.375,0.875-3s-0.25-1.375-0.625-2.375s0.375-2.75,0.5-3.5s2-1.125,2.75-1.375s2.25-2.875,2.875-3.625
					s2.375-4.25,2.875-5.125s2.25-1.875,3.875-2.5s6.375-2.625,6.875-3.125s2.25-1.25,2.75-2.125s1.125-1,1.875-1.25
					s1.25-0.875,1.75-1.5s1.375-1.75,2.125-2s0.375-2,0.5-3s-1.875-2.25-2.5-3.125s-1-1.375-2-2.125s-5.75-4.5-7.625-5.375
					s-2.125-2.625-2.25-3.5s0.25-5.125,0.25-6.125s-0.625-6.125-0.875-7.125s-0.625-4.25-0.875-5.25s-4.75-7.25-5-8
					s-0.25-2.5-0.25-3.25s-0.25-1.625-0.75-2.25s-0.625-1.125-0.875-2s-0.125-2.875-0.5-3.625s-0.125-1.25,0-2.25
					s0.875-3,1.375-4.25s0.125-4.75,0-6s2.25-1.25,3.125-1.375s1.375-1.25,1.625-2.125s0.5-7.125,0.375-8.875s-1-7.375-1.125-8.25
					s-0.5-5.125-0.5-6.125s0.375-5.5,0.5-6.5s1-2.875,1.25-3.625s-0.25-1.875-0.375-3s-0.5-3.125-0.625-4.125s-0.125-1.75-0.625-2.5
					s0.25-4,0.5-4.875s1.25-4.5,1.375-5.375s1.25-1.5,2-1.875s-0.75-2.375-1.375-2.875s-1.625-1.625-2.625-4s-0.625-5.25-0.625-5.25
					L83.08,98.234z"/>
			</g>
		</g>
	</g>
</g>
<g id="symbol">
	<g id="city_1_">
		<g id="capital_county_1_">
			<g>
				<circle stroke="#000000" stroke-width="1.8425" stroke-miterlimit="10" cx="402.87" cy="256.18" r="1.5"/>
			</g>
			<g>
				<circle stroke="#000000" stroke-width="1.8425" stroke-miterlimit="10" cx="356.287" cy="221.264" r="1.5"/>
			</g>
			<g>
				<circle stroke="#000000" stroke-width="1.8425" stroke-miterlimit="10" cx="367.62" cy="381.93" r="1.5"/>
			</g>
			<g>
				<circle stroke="#000000" stroke-width="1.8425" stroke-miterlimit="10" cx="280.954" cy="413.597" r="1.5"/>
			</g>
			<g>
				<circle stroke="#000000" stroke-width="1.8425" stroke-miterlimit="10" cx="275.288" cy="485.263" r="1.5"/>
			</g>
			<g>
				<circle stroke="#000000" stroke-width="1.8425" stroke-miterlimit="10" cx="263.62" cy="353.597" r="1.5"/>
			</g>
			<g>
				<circle stroke="#000000" stroke-width="1.8425" stroke-miterlimit="10" cx="394.953" cy="366.264" r="1.5"/>
			</g>
			<g>
				<circle stroke="#000000" stroke-width="1.8425" stroke-miterlimit="10" cx="303.954" cy="331.43" r="1.5"/>
			</g>
			<g>
				<circle stroke="#000000" stroke-width="1.8425" stroke-miterlimit="10" cx="207.954" cy="228.93" r="1.5"/>
			</g>
			<g>
				<circle stroke="#000000" stroke-width="1.8425" stroke-miterlimit="10" cx="89.954" cy="247.597" r="1.5"/>
			</g>
			<g>
				<circle stroke="#000000" stroke-width="1.8425" stroke-miterlimit="10" cx="50.954" cy="354.596" r="1.5"/>
			</g>
			<g>
				<circle stroke="#000000" stroke-width="1.8425" stroke-miterlimit="10" cx="117.954" cy="165.597" r="1.5"/>
			</g>
			<g>
				<circle stroke="#000000" stroke-width="1.8425" stroke-miterlimit="10" cx="267.12" cy="186.68" r="1.5"/>
			</g>
			<g>
				<circle stroke="#000000" stroke-width="1.8425" stroke-miterlimit="10" cx="341.62" cy="484.597" r="1.5"/>
			</g>
		</g>
		<g id="capital_1_">
			<g>
				
					<rect x="218.109" y="311.086" fill="#E2001A" stroke="#000000" stroke-width="0.9381" stroke-miterlimit="10" width="6.178" height="6.178"/>
			</g>
		</g>
	</g>
</g>
<g id="letter">
	<g id="city">
		<g id="capital_county">
			<g>
				<path d="M387.582,265.542c0.312,0.192,0.768,0.353,1.247,0.353c0.712,0,1.128-0.377,1.128-0.92c0-0.504-0.288-0.792-1.016-1.072
					c-0.88-0.311-1.424-0.768-1.424-1.526c0-0.84,0.696-1.463,1.743-1.463c0.552,0,0.952,0.128,1.191,0.264l-0.191,0.567
					c-0.176-0.096-0.536-0.256-1.023-0.256c-0.735,0-1.016,0.44-1.016,0.808c0,0.504,0.328,0.751,1.071,1.04
					c0.912,0.352,1.375,0.791,1.375,1.582c0,0.832-0.615,1.552-1.887,1.552c-0.52,0-1.087-0.151-1.375-0.344L387.582,265.542z"/>
				<path d="M392.422,261.409v1.111h1.007v0.536h-1.007v2.087c0,0.479,0.136,0.752,0.527,0.752c0.184,0,0.319-0.024,0.408-0.049
					l0.031,0.527c-0.136,0.057-0.352,0.097-0.623,0.097c-0.328,0-0.592-0.104-0.76-0.296c-0.2-0.208-0.272-0.552-0.272-1.008v-2.11
					h-0.6v-0.536h0.6v-0.927L392.422,261.409z"/>
				<path d="M394.03,265.974c0-0.296,0.199-0.503,0.479-0.503s0.472,0.207,0.472,0.503c0,0.288-0.184,0.504-0.479,0.504
					C394.222,266.478,394.03,266.262,394.03,265.974z"/>
				<path d="M398.678,261.001h0.695v3.606c0,1.432-0.703,1.871-1.631,1.871c-0.256,0-0.567-0.056-0.743-0.128l0.104-0.567
					c0.145,0.056,0.352,0.104,0.584,0.104c0.624,0,0.991-0.28,0.991-1.335V261.001z"/>
				<path d="M404.013,264.423c0,1.431-0.991,2.055-1.927,2.055c-1.048,0-1.855-0.768-1.855-1.991c0-1.295,0.848-2.055,1.919-2.055
					C403.261,262.432,404.013,263.24,404.013,264.423z M400.942,264.463c0,0.848,0.487,1.486,1.175,1.486
					c0.672,0,1.176-0.631,1.176-1.502c0-0.656-0.328-1.488-1.159-1.488C401.302,262.959,400.942,263.727,400.942,264.463z"/>
				<path d="M404.902,260.713h0.703v2.414h0.017c0.111-0.199,0.287-0.375,0.503-0.495c0.208-0.12,0.456-0.2,0.72-0.2
					c0.52,0,1.352,0.32,1.352,1.655v2.303h-0.704v-2.223c0-0.624-0.231-1.151-0.896-1.151c-0.455,0-0.815,0.32-0.943,0.703
					c-0.04,0.096-0.048,0.2-0.048,0.336v2.335h-0.703V260.713z"/>
				<path d="M409.343,263.568c0-0.399-0.009-0.728-0.032-1.048h0.624l0.04,0.64h0.016c0.191-0.368,0.64-0.728,1.279-0.728
					c0.535,0,1.367,0.32,1.367,1.647v2.311h-0.704v-2.231c0-0.623-0.231-1.143-0.896-1.143c-0.463,0-0.823,0.328-0.943,0.72
					c-0.031,0.088-0.048,0.208-0.048,0.327v2.327h-0.703V263.568z"/>
				<path d="M413.686,265.67c0.208,0.137,0.576,0.279,0.928,0.279c0.512,0,0.752-0.256,0.752-0.575c0-0.335-0.2-0.52-0.72-0.712
					c-0.695-0.248-1.023-0.631-1.023-1.095c0-0.624,0.504-1.136,1.335-1.136c0.392,0,0.736,0.112,0.952,0.24l-0.177,0.512
					c-0.151-0.096-0.432-0.225-0.791-0.225c-0.416,0-0.647,0.24-0.647,0.528c0,0.319,0.231,0.464,0.735,0.655
					c0.672,0.256,1.016,0.592,1.016,1.168c0,0.68-0.528,1.159-1.447,1.159c-0.424,0-0.815-0.104-1.088-0.265L413.686,265.67z"/>
			</g>
			<g>
				<path d="M272.828,182.575h2.902v0.584h-2.206v1.791h2.038v0.576h-2.038v2.438h-0.696V182.575z"/>
				<path d="M276.564,182.287h0.703v5.677h-0.703V182.287z"/>
				<path d="M280.595,187.964l-0.056-0.488h-0.024c-0.216,0.304-0.632,0.576-1.184,0.576c-0.783,0-1.183-0.552-1.183-1.111
					c0-0.936,0.831-1.447,2.326-1.439v-0.08c0-0.32-0.088-0.896-0.88-0.896c-0.359,0-0.735,0.112-1.007,0.288l-0.16-0.464
					c0.32-0.208,0.784-0.344,1.271-0.344c1.184,0,1.471,0.808,1.471,1.583v1.447c0,0.336,0.017,0.664,0.064,0.928H280.595z
					 M280.491,185.989c-0.768-0.016-1.64,0.12-1.64,0.872c0,0.456,0.304,0.672,0.664,0.672c0.503,0,0.823-0.32,0.936-0.648
					c0.023-0.072,0.04-0.152,0.04-0.224V185.989z"/>
				<path d="M285.643,184.094c-0.017,0.28-0.032,0.592-0.032,1.063v2.247c0,0.887-0.176,1.431-0.552,1.767
					c-0.376,0.352-0.919,0.463-1.407,0.463c-0.464,0-0.976-0.112-1.287-0.32l0.176-0.536c0.256,0.16,0.656,0.304,1.136,0.304
					c0.72,0,1.247-0.375,1.247-1.351V187.3h-0.016c-0.216,0.36-0.632,0.647-1.231,0.647c-0.96,0-1.647-0.815-1.647-1.887
					c0-1.312,0.855-2.055,1.743-2.055c0.672,0,1.039,0.352,1.207,0.672h0.017l0.031-0.584H285.643z M284.915,185.621
					c0-0.12-0.008-0.224-0.04-0.32c-0.128-0.408-0.472-0.744-0.983-0.744c-0.672,0-1.151,0.568-1.151,1.463
					c0,0.759,0.384,1.391,1.144,1.391c0.432,0,0.823-0.272,0.975-0.72c0.04-0.12,0.057-0.256,0.057-0.375V185.621z"/>
				<path d="M286.684,187.244c0.208,0.136,0.576,0.28,0.928,0.28c0.512,0,0.752-0.256,0.752-0.576c0-0.335-0.2-0.52-0.72-0.711
					c-0.695-0.248-1.023-0.632-1.023-1.095c0-0.624,0.504-1.136,1.335-1.136c0.392,0,0.735,0.112,0.952,0.24l-0.177,0.512
					c-0.151-0.096-0.432-0.224-0.791-0.224c-0.416,0-0.647,0.24-0.647,0.528c0,0.32,0.231,0.464,0.735,0.656
					c0.672,0.256,1.016,0.591,1.016,1.167c0,0.68-0.528,1.16-1.447,1.16c-0.424,0-0.815-0.104-1.088-0.264L286.684,187.244z"/>
				<path d="M290.796,182.982v1.111h1.007v0.536h-1.007v2.087c0,0.479,0.136,0.751,0.527,0.751c0.184,0,0.319-0.024,0.408-0.048
					l0.031,0.528c-0.136,0.056-0.352,0.096-0.623,0.096c-0.328,0-0.592-0.104-0.76-0.296c-0.2-0.208-0.272-0.552-0.272-1.007v-2.111
					h-0.6v-0.536h0.6v-0.927L290.796,182.982z"/>
				<path d="M294.738,187.964l-0.056-0.488h-0.024c-0.216,0.304-0.632,0.576-1.184,0.576c-0.783,0-1.183-0.552-1.183-1.111
					c0-0.936,0.831-1.447,2.326-1.439v-0.08c0-0.32-0.088-0.896-0.879-0.896c-0.36,0-0.736,0.112-1.008,0.288l-0.16-0.464
					c0.32-0.208,0.783-0.344,1.271-0.344c1.184,0,1.471,0.808,1.471,1.583v1.447c0,0.336,0.017,0.664,0.064,0.928H294.738z
					 M294.634,185.989c-0.768-0.016-1.639,0.12-1.639,0.872c0,0.456,0.304,0.672,0.664,0.672c0.503,0,0.823-0.32,0.936-0.648
					c0.023-0.072,0.039-0.152,0.039-0.224V185.989z"/>
				<path d="M298.842,187.964v-3.334h-1.623v3.334h-0.696v-3.334h-0.543v-0.536h0.543v-0.128c0-0.543,0.128-1.015,0.432-1.319
					c0.225-0.224,0.544-0.36,0.976-0.36c0.225,0,0.433,0.072,0.552,0.136l-0.144,0.52c-0.104-0.048-0.256-0.096-0.416-0.096
					c-0.552,0-0.703,0.472-0.703,1.08v0.167h1.623v-0.184c0-0.544,0.128-1.04,0.455-1.352c0.265-0.256,0.616-0.359,0.936-0.359
					c0.256,0,0.464,0.056,0.6,0.112l-0.088,0.543c-0.111-0.048-0.247-0.088-0.455-0.088c-0.592,0-0.752,0.528-0.752,1.12v0.208
					h0.936v0.536h-0.928v3.334H298.842z"/>
			</g>
			<g>
				<path d="M312.144,332.584c-0.312,0.111-0.928,0.296-1.654,0.296c-0.816,0-1.488-0.208-2.016-0.712
					c-0.463-0.447-0.752-1.168-0.752-2.007c0.008-1.606,1.111-2.782,2.918-2.782c0.625,0,1.111,0.136,1.344,0.248l-0.168,0.567
					c-0.287-0.128-0.646-0.231-1.191-0.231c-1.311,0-2.166,0.814-2.166,2.166c0,1.367,0.822,2.176,2.078,2.176
					c0.455,0,0.768-0.064,0.928-0.145v-1.607h-1.096v-0.56h1.775V332.584z"/>
				<path d="M313.187,327.147h0.703v5.678h-0.703V327.147z"/>
				<path d="M318.575,330.858c0,1.431-0.99,2.055-1.926,2.055c-1.049,0-1.855-0.768-1.855-1.991c0-1.296,0.848-2.056,1.918-2.056
					C317.823,328.866,318.575,329.674,318.575,330.858z M315.505,330.897c0,0.848,0.488,1.487,1.176,1.487
					c0.672,0,1.176-0.632,1.176-1.503c0-0.656-0.328-1.487-1.16-1.487S315.505,330.162,315.505,330.897z"/>
				<path d="M319.433,332.825c0.016-0.264,0.033-0.656,0.033-1v-4.678h0.695v2.432h0.016c0.248-0.432,0.695-0.713,1.318-0.713
					c0.961,0,1.641,0.801,1.633,1.976c0,1.384-0.873,2.071-1.736,2.071c-0.559,0-1.008-0.217-1.295-0.729h-0.023l-0.033,0.641
					H319.433z M320.161,331.273c0,0.088,0.016,0.177,0.031,0.256c0.137,0.487,0.545,0.823,1.057,0.823
					c0.734,0,1.174-0.6,1.174-1.486c0-0.775-0.398-1.439-1.15-1.439c-0.48,0-0.928,0.328-1.072,0.863
					c-0.016,0.08-0.039,0.176-0.039,0.288V331.273z"/>
				<path d="M324.409,331.017c0.016,0.952,0.623,1.343,1.326,1.343c0.504,0,0.809-0.088,1.072-0.199l0.119,0.504
					c-0.248,0.111-0.672,0.24-1.287,0.24c-1.191,0-1.902-0.784-1.902-1.951c0-1.168,0.688-2.088,1.814-2.088
					c1.264,0,1.6,1.111,1.6,1.824c0,0.144-0.016,0.256-0.023,0.327H324.409z M326.472,330.514c0.008-0.448-0.184-1.145-0.977-1.145
					c-0.711,0-1.023,0.656-1.078,1.145H326.472z"/>
			</g>
			<g>
				<path d="M357.001,391.356c0.312,0.191,0.768,0.352,1.247,0.352c0.712,0,1.128-0.375,1.128-0.919
					c0-0.504-0.288-0.792-1.016-1.071c-0.88-0.312-1.424-0.768-1.424-1.527c0-0.84,0.696-1.463,1.743-1.463
					c0.552,0,0.952,0.127,1.191,0.264l-0.191,0.567c-0.176-0.096-0.536-0.256-1.023-0.256c-0.735,0-1.016,0.44-1.016,0.808
					c0,0.504,0.328,0.752,1.071,1.039c0.912,0.352,1.375,0.792,1.375,1.584c0,0.831-0.615,1.551-1.887,1.551
					c-0.52,0-1.087-0.152-1.375-0.344L357.001,391.356z"/>
				<path d="M363.185,392.204l-0.056-0.488h-0.024c-0.216,0.305-0.632,0.576-1.184,0.576c-0.783,0-1.183-0.552-1.183-1.111
					c0-0.936,0.831-1.447,2.326-1.439v-0.08c0-0.319-0.088-0.895-0.88-0.895c-0.359,0-0.735,0.111-1.007,0.287l-0.16-0.464
					c0.32-0.208,0.784-0.344,1.271-0.344c1.184,0,1.471,0.808,1.471,1.583v1.447c0,0.336,0.017,0.664,0.064,0.928H363.185z
					 M363.081,390.229c-0.768-0.016-1.64,0.119-1.64,0.871c0,0.456,0.304,0.672,0.664,0.672c0.503,0,0.823-0.32,0.936-0.648
					c0.023-0.071,0.04-0.151,0.04-0.223V390.229z"/>
				<path d="M367.288,392.204v-3.334h-1.623v3.334h-0.696v-3.334h-0.543v-0.536h0.543v-0.128c0-0.543,0.128-1.016,0.433-1.318
					c0.224-0.225,0.543-0.36,0.975-0.36c0.225,0,0.432,0.071,0.552,0.136l-0.144,0.52c-0.104-0.048-0.256-0.096-0.416-0.096
					c-0.552,0-0.703,0.472-0.703,1.08v0.167h1.623v-0.184c0-0.544,0.128-1.04,0.455-1.352c0.265-0.256,0.616-0.359,0.936-0.359
					c0.256,0,0.464,0.056,0.6,0.112l-0.088,0.543c-0.111-0.048-0.247-0.088-0.455-0.088c-0.592,0-0.752,0.527-0.752,1.119v0.208
					h0.936v0.536h-0.928v3.334H367.288z"/>
				<path d="M372.96,390.237c0,1.432-0.991,2.055-1.927,2.055c-1.048,0-1.855-0.768-1.855-1.99c0-1.296,0.848-2.056,1.919-2.056
					C372.208,388.246,372.96,389.053,372.96,390.237z M369.89,390.277c0,0.847,0.487,1.487,1.175,1.487
					c0.672,0,1.176-0.632,1.176-1.504c0-0.655-0.328-1.486-1.159-1.486C370.249,388.774,369.89,389.542,369.89,390.277z"/>
				<path d="M373.85,389.542c0-0.456-0.009-0.848-0.032-1.208h0.615l0.024,0.76h0.032c0.176-0.52,0.6-0.848,1.071-0.848
					c0.08,0,0.136,0.009,0.2,0.024v0.664c-0.072-0.017-0.145-0.024-0.24-0.024c-0.496,0-0.848,0.376-0.943,0.903
					c-0.017,0.096-0.032,0.208-0.032,0.328v2.062h-0.695V389.542z"/>
				<path d="M379.728,386.527v4.677c0,0.344,0.008,0.736,0.032,1h-0.632l-0.032-0.672h-0.016c-0.216,0.432-0.688,0.76-1.319,0.76
					c-0.936,0-1.655-0.791-1.655-1.967c-0.008-1.287,0.792-2.079,1.735-2.079c0.592,0,0.991,0.28,1.167,0.592h0.017v-2.311H379.728z
					 M379.024,389.909c0-0.088-0.009-0.207-0.032-0.296c-0.104-0.447-0.488-0.815-1.016-0.815c-0.728,0-1.159,0.64-1.159,1.495
					c0,0.784,0.384,1.432,1.144,1.432c0.472,0,0.903-0.312,1.031-0.84c0.023-0.096,0.032-0.192,0.032-0.304V389.909z"/>
			</g>
			<g>
				<path d="M346.919,480.947c0.305-0.063,0.785-0.111,1.271-0.111c0.695,0,1.145,0.12,1.48,0.392
					c0.279,0.208,0.447,0.527,0.447,0.951c0,0.52-0.344,0.976-0.912,1.184v0.016c0.512,0.128,1.111,0.552,1.111,1.352
					c0,0.464-0.184,0.815-0.455,1.079c-0.377,0.344-0.984,0.504-1.863,0.504c-0.48,0-0.848-0.032-1.08-0.063V480.947z
					 M347.616,483.154h0.631c0.736,0,1.168-0.384,1.168-0.903c0-0.632-0.48-0.88-1.184-0.88c-0.32,0-0.504,0.024-0.615,0.048
					V483.154z M347.616,485.737c0.135,0.023,0.334,0.031,0.582,0.031c0.721,0,1.385-0.264,1.385-1.047
					c0-0.735-0.633-1.04-1.393-1.04h-0.574V485.737z"/>
				<path d="M352.015,481.307c0.008,0.239-0.168,0.432-0.447,0.432c-0.248,0-0.424-0.192-0.424-0.432c0-0.248,0.184-0.44,0.439-0.44
					C351.847,480.867,352.015,481.059,352.015,481.307z M351.231,486.264v-3.87h0.703v3.87H351.231z"/>
				<path d="M353.007,485.544c0.209,0.136,0.576,0.28,0.928,0.28c0.512,0,0.752-0.256,0.752-0.576c0-0.336-0.199-0.52-0.719-0.711
					c-0.695-0.248-1.023-0.632-1.023-1.096c0-0.624,0.504-1.136,1.334-1.136c0.393,0,0.736,0.112,0.953,0.24l-0.178,0.512
					c-0.15-0.096-0.432-0.224-0.791-0.224c-0.416,0-0.646,0.239-0.646,0.527c0,0.319,0.23,0.464,0.734,0.655
					c0.672,0.256,1.016,0.592,1.016,1.168c0,0.68-0.527,1.159-1.447,1.159c-0.424,0-0.814-0.104-1.088-0.264L353.007,485.544z"/>
				<path d="M356.239,486.264c0.016-0.264,0.033-0.655,0.033-0.999v-4.678h0.695v2.431h0.016c0.248-0.432,0.695-0.712,1.318-0.712
					c0.961,0,1.641,0.8,1.633,1.976c0,1.383-0.873,2.07-1.736,2.07c-0.559,0-1.008-0.216-1.295-0.728h-0.023l-0.033,0.64H356.239z
					 M356.968,484.713c0,0.088,0.016,0.176,0.031,0.256c0.137,0.487,0.545,0.823,1.057,0.823c0.734,0,1.174-0.6,1.174-1.487
					c0-0.775-0.398-1.439-1.15-1.439c-0.48,0-0.928,0.328-1.072,0.864c-0.016,0.079-0.039,0.176-0.039,0.287V484.713z"/>
				<path d="M361.216,484.458c0.016,0.951,0.623,1.343,1.326,1.343c0.504,0,0.809-0.088,1.072-0.2l0.119,0.504
					c-0.248,0.112-0.672,0.24-1.287,0.24c-1.191,0-1.902-0.783-1.902-1.951c0-1.167,0.688-2.087,1.814-2.087
					c1.264,0,1.6,1.111,1.6,1.823c0,0.144-0.016,0.256-0.023,0.328H361.216z M363.278,483.954c0.008-0.448-0.184-1.144-0.977-1.144
					c-0.711,0-1.023,0.655-1.078,1.144H363.278z"/>
				<path d="M365.224,484.458c0.016,0.951,0.623,1.343,1.326,1.343c0.504,0,0.809-0.088,1.072-0.2l0.119,0.504
					c-0.248,0.112-0.672,0.24-1.287,0.24c-1.191,0-1.902-0.783-1.902-1.951c0-1.167,0.688-2.087,1.814-2.087
					c1.264,0,1.6,1.111,1.6,1.823c0,0.144-0.016,0.256-0.023,0.328H365.224z M367.286,483.954c0.008-0.448-0.184-1.144-0.977-1.144
					c-0.711,0-1.023,0.655-1.078,1.144H367.286z"/>
			</g>
			<g>
				<path d="M392.618,361.353c-0.256,0.128-0.768,0.256-1.424,0.256c-1.52,0-2.662-0.96-2.662-2.727
					c0-1.687,1.143-2.831,2.814-2.831c0.67,0,1.094,0.145,1.279,0.24l-0.168,0.568c-0.264-0.129-0.641-0.225-1.088-0.225
					c-1.264,0-2.104,0.808-2.104,2.223c0,1.32,0.76,2.167,2.072,2.167c0.422,0,0.855-0.088,1.135-0.224L392.618,361.353z"/>
				<path d="M393.468,355.852h0.703v5.677h-0.703V355.852z"/>
				<path d="M396.138,356.572c0.008,0.239-0.168,0.432-0.447,0.432c-0.248,0-0.424-0.192-0.424-0.432c0-0.248,0.184-0.44,0.439-0.44
					C395.97,356.131,396.138,356.324,396.138,356.572z M395.354,361.529v-3.87h0.703v3.87H395.354z"/>
				<path d="M397.298,361.529v-3.334h-0.543v-0.536h0.543v-0.184c0-0.544,0.121-1.039,0.449-1.352
					c0.264-0.256,0.615-0.359,0.943-0.359c0.248,0,0.463,0.056,0.6,0.111l-0.096,0.544c-0.105-0.048-0.248-0.088-0.449-0.088
					c-0.6,0-0.75,0.528-0.75,1.12v0.207h0.936v0.536h-0.936v3.334H397.298z"/>
				<path d="M400.499,356.547v1.111h1.006v0.536h-1.006v2.087c0,0.479,0.135,0.752,0.527,0.752c0.184,0,0.318-0.024,0.406-0.049
					l0.033,0.527c-0.137,0.057-0.352,0.097-0.623,0.097c-0.328,0-0.592-0.104-0.76-0.296c-0.201-0.208-0.273-0.552-0.273-1.008
					v-2.11h-0.6v-0.536h0.6v-0.928L400.499,356.547z"/>
				<path d="M405.753,359.562c0,1.431-0.992,2.055-1.928,2.055c-1.047,0-1.855-0.768-1.855-1.991c0-1.295,0.848-2.055,1.92-2.055
					C405.001,357.571,405.753,358.378,405.753,359.562z M402.683,359.602c0,0.848,0.486,1.486,1.174,1.486
					c0.672,0,1.176-0.631,1.176-1.502c0-0.656-0.328-1.488-1.158-1.488C403.042,358.098,402.683,358.866,402.683,359.602z"/>
				<path d="M406.642,358.707c0-0.399-0.008-0.728-0.031-1.048h0.623l0.039,0.64h0.018c0.191-0.368,0.639-0.728,1.279-0.728
					c0.535,0,1.367,0.32,1.367,1.647v2.311h-0.705v-2.231c0-0.623-0.23-1.143-0.895-1.143c-0.463,0-0.824,0.328-0.943,0.72
					c-0.031,0.088-0.049,0.208-0.049,0.327v2.327h-0.703V358.707z"/>
			</g>
			<g>
				<path d="M94.096,244.894c0.336-0.056,0.776-0.104,1.335-0.104c0.688,0,1.191,0.16,1.511,0.448
					c0.296,0.256,0.472,0.648,0.472,1.127c0,0.488-0.144,0.872-0.416,1.151c-0.368,0.392-0.968,0.592-1.647,0.592
					c-0.208,0-0.399-0.008-0.56-0.048v2.159h-0.696V244.894z M94.792,247.493c0.152,0.04,0.344,0.056,0.576,0.056
					c0.84,0,1.352-0.408,1.352-1.151c0-0.712-0.504-1.056-1.271-1.056c-0.304,0-0.536,0.024-0.656,0.056V247.493z"/>
				<path d="M100.263,250.219l-0.056-0.488h-0.024c-0.216,0.304-0.632,0.576-1.183,0.576c-0.784,0-1.184-0.552-1.184-1.111
					c0-0.936,0.832-1.447,2.327-1.439v-0.08c0-0.32-0.088-0.896-0.879-0.896c-0.36,0-0.736,0.112-1.007,0.288l-0.16-0.464
					c0.32-0.208,0.784-0.344,1.271-0.344c1.183,0,1.471,0.808,1.471,1.583v1.447c0,0.336,0.016,0.664,0.064,0.928H100.263z
					 M100.159,248.244c-0.768-0.016-1.639,0.12-1.639,0.872c0,0.456,0.304,0.672,0.664,0.672c0.504,0,0.824-0.32,0.936-0.648
					c0.024-0.072,0.04-0.152,0.04-0.224V248.244z"/>
				<path d="M101.976,247.557c0-0.456-0.008-0.848-0.032-1.208h0.616l0.024,0.76h0.032c0.176-0.52,0.6-0.848,1.072-0.848
					c0.08,0,0.136,0.008,0.2,0.024v0.664c-0.072-0.016-0.144-0.024-0.24-0.024c-0.496,0-0.848,0.375-0.944,0.903
					c-0.016,0.096-0.032,0.208-0.032,0.328v2.063h-0.696V247.557z"/>
				<path d="M105.319,248.125h0.016c0.096-0.136,0.232-0.304,0.344-0.44l1.135-1.335h0.848l-1.495,1.591l1.703,2.279h-0.855
					l-1.335-1.855l-0.36,0.4v1.455h-0.696v-5.677h0.696V248.125z"/>
				<path d="M108.768,248.412c0.016,0.952,0.624,1.343,1.327,1.343c0.504,0,0.808-0.088,1.071-0.2l0.12,0.503
					c-0.248,0.112-0.672,0.24-1.287,0.24c-1.191,0-1.903-0.784-1.903-1.951c0-1.167,0.688-2.087,1.815-2.087
					c1.264,0,1.599,1.111,1.599,1.823c0,0.144-0.016,0.256-0.024,0.328H108.768z M110.83,247.909
					c0.008-0.448-0.184-1.144-0.975-1.144c-0.712,0-1.023,0.656-1.08,1.144H110.83z"/>
				<path d="M112.383,247.557c0-0.456-0.008-0.848-0.032-1.208h0.616l0.024,0.76h0.032c0.176-0.52,0.6-0.848,1.072-0.848
					c0.08,0,0.136,0.008,0.2,0.024v0.664c-0.072-0.016-0.144-0.024-0.24-0.024c-0.496,0-0.848,0.375-0.943,0.903
					c-0.016,0.096-0.032,0.208-0.032,0.328v2.063h-0.696V247.557z"/>
			</g>
			<g>
				<path d="M122.429,162.252h0.695v2.599h0.024c0.144-0.208,0.288-0.4,0.424-0.576l1.647-2.023h0.864l-1.951,2.287l2.103,3.102
					h-0.824l-1.775-2.646l-0.512,0.592v2.055h-0.695V162.252z"/>
				<path d="M127.604,162.684c0.008,0.24-0.168,0.432-0.448,0.432c-0.248,0-0.424-0.192-0.424-0.432c0-0.248,0.184-0.439,0.44-0.439
					C127.437,162.245,127.604,162.437,127.604,162.684z M126.821,167.642v-3.87h0.704v3.87H126.821z"/>
				<path d="M128.693,164.819c0-0.4-0.008-0.728-0.032-1.047h0.624l0.04,0.64h0.016c0.192-0.368,0.64-0.728,1.279-0.728
					c0.536,0,1.367,0.32,1.367,1.647v2.311h-0.704v-2.231c0-0.624-0.232-1.143-0.896-1.143c-0.464,0-0.824,0.328-0.943,0.719
					c-0.032,0.088-0.048,0.208-0.048,0.328v2.327h-0.704V164.819z"/>
				<path d="M136.467,163.772c-0.016,0.28-0.032,0.591-0.032,1.063v2.247c0,0.887-0.176,1.431-0.552,1.767
					c-0.375,0.352-0.919,0.463-1.407,0.463c-0.463,0-0.975-0.112-1.287-0.32l0.176-0.536c0.256,0.16,0.656,0.304,1.136,0.304
					c0.719,0,1.247-0.376,1.247-1.352v-0.432h-0.016c-0.216,0.36-0.631,0.647-1.231,0.647c-0.96,0-1.647-0.815-1.647-1.887
					c0-1.312,0.855-2.055,1.743-2.055c0.672,0,1.04,0.352,1.208,0.672h0.016l0.032-0.583H136.467z M135.74,165.299
					c0-0.12-0.008-0.224-0.04-0.32c-0.128-0.408-0.472-0.744-0.983-0.744c-0.672,0-1.151,0.568-1.151,1.463
					c0,0.76,0.384,1.391,1.143,1.391c0.432,0,0.824-0.272,0.976-0.72c0.04-0.12,0.056-0.256,0.056-0.375V165.299z"/>
				<path d="M137.557,164.819c0-0.4-0.008-0.728-0.032-1.047h0.616l0.032,0.624h0.024c0.216-0.368,0.576-0.712,1.215-0.712
					c0.528,0,0.928,0.32,1.096,0.776h0.016c0.12-0.216,0.272-0.384,0.432-0.504c0.232-0.176,0.488-0.272,0.855-0.272
					c0.512,0,1.271,0.336,1.271,1.679v2.279h-0.688v-2.191c0-0.744-0.271-1.191-0.839-1.191c-0.4,0-0.711,0.296-0.832,0.64
					c-0.032,0.096-0.056,0.224-0.056,0.352v2.391h-0.688v-2.319c0-0.616-0.272-1.063-0.808-1.063c-0.44,0-0.759,0.352-0.872,0.704
					c-0.04,0.104-0.056,0.224-0.056,0.344v2.334h-0.688V164.819z"/>
				<path d="M146.372,167.642l-0.056-0.488h-0.024c-0.216,0.304-0.632,0.576-1.183,0.576c-0.784,0-1.184-0.552-1.184-1.111
					c0-0.936,0.832-1.447,2.327-1.439v-0.08c0-0.32-0.088-0.896-0.879-0.896c-0.36,0-0.736,0.112-1.007,0.288l-0.16-0.463
					c0.32-0.208,0.784-0.344,1.271-0.344c1.183,0,1.471,0.808,1.471,1.583v1.447c0,0.335,0.016,0.664,0.064,0.927H146.372z
					 M146.268,165.667c-0.768-0.016-1.639,0.12-1.639,0.872c0,0.456,0.304,0.672,0.664,0.672c0.504,0,0.824-0.32,0.936-0.648
					c0.024-0.072,0.04-0.152,0.04-0.224V165.667z"/>
				<path d="M148.084,164.819c0-0.4-0.008-0.728-0.032-1.047h0.624l0.04,0.64h0.016c0.192-0.368,0.64-0.728,1.279-0.728
					c0.536,0,1.367,0.32,1.367,1.647v2.311h-0.704v-2.231c0-0.624-0.232-1.143-0.896-1.143c-0.464,0-0.824,0.328-0.943,0.719
					c-0.032,0.088-0.048,0.208-0.048,0.328v2.327h-0.704V164.819z"/>
			</g>
			<g>
				<path d="M341.264,224.769v2.255h2.606v-2.255h0.703v5.389h-0.703v-2.527h-2.606v2.527h-0.696v-5.389H341.264z"/>
				<path d="M349.262,228.191c0,1.431-0.991,2.055-1.927,2.055c-1.048,0-1.855-0.768-1.855-1.991c0-1.295,0.848-2.055,1.919-2.055
					C348.51,226.2,349.262,227.007,349.262,228.191z M346.191,228.231c0,0.847,0.487,1.487,1.175,1.487
					c0.672,0,1.176-0.631,1.176-1.503c0-0.656-0.328-1.487-1.159-1.487C346.551,226.728,346.191,227.495,346.191,228.231z"/>
				<path d="M350.151,224.481h0.703v5.677h-0.703V224.481z"/>
				<path d="M352.007,230.158c0.016-0.264,0.032-0.656,0.032-1v-4.677h0.695v2.431h0.016c0.248-0.432,0.696-0.712,1.319-0.712
					c0.96,0,1.64,0.8,1.632,1.975c0,1.383-0.872,2.071-1.735,2.071c-0.56,0-1.008-0.216-1.295-0.728h-0.024l-0.032,0.64H352.007z
					 M352.734,228.606c0,0.088,0.016,0.176,0.032,0.256c0.136,0.488,0.543,0.824,1.055,0.824c0.736,0,1.176-0.6,1.176-1.487
					c0-0.775-0.399-1.439-1.151-1.439c-0.479,0-0.928,0.328-1.071,0.863c-0.016,0.08-0.04,0.176-0.04,0.288V228.606z"/>
				<path d="M356.591,227.495c0-0.456-0.008-0.848-0.032-1.207h0.615l0.024,0.759h0.032c0.176-0.52,0.6-0.848,1.071-0.848
					c0.08,0,0.136,0.008,0.199,0.024v0.664c-0.071-0.016-0.144-0.024-0.239-0.024c-0.496,0-0.848,0.376-0.943,0.904
					c-0.017,0.096-0.032,0.208-0.032,0.328v2.063h-0.695V227.495z"/>
				<path d="M362.629,228.191c0,1.431-0.991,2.055-1.927,2.055c-1.048,0-1.855-0.768-1.855-1.991c0-1.295,0.848-2.055,1.919-2.055
					C361.877,226.2,362.629,227.007,362.629,228.191z M359.559,228.231c0,0.847,0.487,1.487,1.175,1.487
					c0.672,0,1.176-0.631,1.176-1.503c0-0.656-0.328-1.487-1.159-1.487C359.918,226.728,359.559,227.495,359.559,228.231z"/>
				<path d="M367.021,228.191c0,1.431-0.991,2.055-1.927,2.055c-1.048,0-1.855-0.768-1.855-1.991c0-1.295,0.848-2.055,1.919-2.055
					C366.269,226.2,367.021,227.007,367.021,228.191z M363.95,228.231c0,0.847,0.487,1.487,1.175,1.487
					c0.672,0,1.176-0.631,1.176-1.503c0-0.656-0.328-1.487-1.159-1.487C364.31,226.728,363.95,227.495,363.95,228.231z"/>
				<path d="M368.605,228.063h0.016c0.097-0.136,0.232-0.304,0.344-0.44l1.136-1.335h0.848l-1.495,1.591l1.703,2.279h-0.855
					l-1.336-1.855l-0.359,0.4v1.455h-0.695v-5.677h0.695V228.063z"/>
			</g>
			<g>
				<path d="M285.81,410.245h-1.639v-0.591h3.989v0.591h-1.646v4.798h-0.704V410.245z"/>
				<path d="M291.616,413.987c0,0.4,0.008,0.752,0.031,1.056h-0.623l-0.04-0.632h-0.017c-0.184,0.312-0.591,0.72-1.279,0.72
					c-0.607,0-1.335-0.336-1.335-1.695v-2.263h0.704v2.143c0,0.736,0.224,1.231,0.863,1.231c0.472,0,0.8-0.327,0.928-0.64
					c0.04-0.104,0.063-0.231,0.063-0.359v-2.375h0.704V413.987z"/>
				<path d="M295.544,414.899c-0.184,0.096-0.591,0.224-1.111,0.224c-1.167,0-1.927-0.792-1.927-1.975
					c0-1.191,0.815-2.056,2.079-2.056c0.416,0,0.783,0.104,0.976,0.2l-0.16,0.544c-0.168-0.096-0.432-0.184-0.815-0.184
					c-0.888,0-1.367,0.655-1.367,1.463c0,0.896,0.575,1.447,1.343,1.447c0.4,0,0.664-0.104,0.864-0.192L295.544,414.899z"/>
				<path d="M296.273,414.323c0.208,0.136,0.576,0.28,0.928,0.28c0.512,0,0.752-0.256,0.752-0.576c0-0.336-0.2-0.52-0.72-0.712
					c-0.695-0.247-1.023-0.631-1.023-1.095c0-0.624,0.504-1.136,1.335-1.136c0.392,0,0.736,0.112,0.952,0.24l-0.177,0.512
					c-0.151-0.096-0.432-0.224-0.791-0.224c-0.416,0-0.647,0.239-0.647,0.527c0,0.319,0.231,0.464,0.735,0.655
					c0.672,0.256,1.016,0.592,1.016,1.168c0,0.68-0.528,1.159-1.447,1.159c-0.424,0-0.815-0.104-1.088-0.264L296.273,414.323z"/>
				<path d="M303.04,413.076c0,1.431-0.991,2.055-1.927,2.055c-1.048,0-1.855-0.768-1.855-1.991c0-1.295,0.848-2.055,1.919-2.055
					C302.288,411.084,303.04,411.892,303.04,413.076z M299.97,413.116c0,0.848,0.487,1.487,1.175,1.487
					c0.672,0,1.176-0.632,1.176-1.504c0-0.655-0.328-1.486-1.159-1.486C300.329,411.613,299.97,412.38,299.97,413.116z"/>
				<path d="M303.93,412.22c0-0.4-0.008-0.728-0.032-1.048h0.624l0.039,0.64h0.017c0.191-0.367,0.64-0.728,1.279-0.728
					c0.535,0,1.367,0.32,1.367,1.647v2.311h-0.704v-2.23c0-0.624-0.231-1.144-0.896-1.144c-0.463,0-0.823,0.328-0.943,0.72
					c-0.031,0.088-0.048,0.208-0.048,0.327v2.327h-0.703V412.22z"/>
			</g>
			<g>
				<path d="M251.079,343.734h2.902v0.584h-2.207v1.791h2.039v0.575h-2.039v2.439h-0.695V343.734z"/>
				<path d="M254.814,343.446h0.704v5.678h-0.704V343.446z"/>
				<path d="M260.204,347.157c0,1.431-0.99,2.055-1.926,2.055c-1.049,0-1.855-0.768-1.855-1.991c0-1.296,0.848-2.056,1.918-2.056
					C259.452,345.165,260.204,345.973,260.204,347.157z M257.134,347.196c0,0.848,0.488,1.487,1.176,1.487
					c0.672,0,1.176-0.632,1.176-1.503c0-0.656-0.328-1.487-1.16-1.487S257.134,346.46,257.134,347.196z"/>
				<path d="M261.095,346.46c0-0.456-0.01-0.848-0.033-1.207h0.615l0.025,0.759h0.031c0.176-0.52,0.6-0.848,1.072-0.848
					c0.08,0,0.135,0.009,0.199,0.024v0.664c-0.072-0.017-0.145-0.024-0.24-0.024c-0.496,0-0.848,0.376-0.943,0.904
					c-0.016,0.096-0.031,0.207-0.031,0.327v2.063h-0.695V346.46z"/>
				<path d="M264.022,347.316c0.016,0.952,0.623,1.343,1.326,1.343c0.504,0,0.809-0.088,1.072-0.199l0.119,0.504
					c-0.248,0.111-0.672,0.24-1.287,0.24c-1.191,0-1.902-0.784-1.902-1.951c0-1.168,0.688-2.088,1.814-2.088
					c1.264,0,1.6,1.112,1.6,1.824c0,0.144-0.016,0.256-0.023,0.327H264.022z M266.085,346.813c0.008-0.448-0.184-1.145-0.977-1.145
					c-0.711,0-1.023,0.656-1.078,1.145H266.085z"/>
				<path d="M267.638,346.301c0-0.4-0.008-0.729-0.031-1.048h0.623l0.039,0.64h0.018c0.191-0.368,0.639-0.729,1.279-0.729
					c0.535,0,1.367,0.32,1.367,1.648v2.311h-0.705v-2.231c0-0.624-0.23-1.144-0.895-1.144c-0.463,0-0.824,0.328-0.943,0.72
					c-0.031,0.089-0.049,0.208-0.049,0.328v2.327h-0.703V346.301z"/>
				<path d="M274.837,348.979c-0.184,0.096-0.592,0.225-1.111,0.225c-1.168,0-1.928-0.792-1.928-1.976
					c0-1.191,0.816-2.055,2.08-2.055c0.416,0,0.783,0.104,0.975,0.2l-0.16,0.543c-0.168-0.096-0.432-0.184-0.814-0.184
					c-0.889,0-1.367,0.656-1.367,1.463c0,0.896,0.574,1.447,1.342,1.447c0.4,0,0.664-0.104,0.865-0.191L274.837,348.979z"/>
				<path d="M276.007,347.316c0.016,0.952,0.623,1.343,1.326,1.343c0.504,0,0.809-0.088,1.072-0.199l0.119,0.504
					c-0.248,0.111-0.672,0.24-1.287,0.24c-1.191,0-1.902-0.784-1.902-1.951c0-1.168,0.688-2.088,1.814-2.088
					c1.264,0,1.6,1.112,1.6,1.824c0,0.144-0.016,0.256-0.023,0.327H276.007z M278.069,346.813c0.008-0.448-0.184-1.145-0.977-1.145
					c-0.711,0-1.023,0.656-1.078,1.145H278.069z"/>
			</g>
			<g>
				<path d="M280.297,486.352v-5.389h0.76l1.728,2.727c0.399,0.631,0.711,1.199,0.967,1.751l0.017-0.009
					c-0.064-0.719-0.08-1.375-0.08-2.214v-2.255h0.655v5.389h-0.703l-1.712-2.734c-0.375-0.6-0.735-1.216-1.007-1.799l-0.024,0.008
					c0.04,0.68,0.057,1.327,0.057,2.223v2.303H280.297z"/>
				<path d="M289.039,484.385c0,1.431-0.991,2.055-1.927,2.055c-1.048,0-1.855-0.768-1.855-1.991c0-1.295,0.848-2.055,1.919-2.055
					C288.287,482.394,289.039,483.202,289.039,484.385z M285.969,484.425c0,0.848,0.487,1.487,1.175,1.487
					c0.672,0,1.176-0.632,1.176-1.504c0-0.655-0.328-1.486-1.159-1.486C286.328,482.922,285.969,483.69,285.969,484.425z"/>
				<path d="M293.263,482.482c-0.017,0.28-0.032,0.592-0.032,1.063v2.247c0,0.888-0.176,1.431-0.552,1.767
					c-0.376,0.353-0.919,0.464-1.407,0.464c-0.464,0-0.976-0.111-1.287-0.319l0.176-0.536c0.256,0.16,0.656,0.304,1.136,0.304
					c0.72,0,1.247-0.376,1.247-1.351v-0.433h-0.016c-0.216,0.36-0.632,0.648-1.231,0.648c-0.96,0-1.647-0.815-1.647-1.888
					c0-1.311,0.855-2.055,1.743-2.055c0.672,0,1.039,0.352,1.207,0.672h0.017l0.031-0.584H293.263z M292.535,484.009
					c0-0.12-0.008-0.224-0.04-0.319c-0.128-0.408-0.472-0.744-0.983-0.744c-0.672,0-1.151,0.567-1.151,1.463
					c0,0.76,0.384,1.392,1.144,1.392c0.432,0,0.823-0.271,0.975-0.72c0.04-0.12,0.057-0.256,0.057-0.376V484.009z"/>
				<path d="M296.543,486.352l-0.056-0.487h-0.024c-0.216,0.304-0.632,0.575-1.184,0.575c-0.783,0-1.183-0.552-1.183-1.111
					c0-0.936,0.831-1.447,2.326-1.439v-0.08c0-0.319-0.088-0.896-0.88-0.896c-0.359,0-0.735,0.112-1.007,0.288l-0.16-0.464
					c0.32-0.208,0.784-0.344,1.271-0.344c1.184,0,1.471,0.808,1.471,1.583v1.447c0,0.336,0.017,0.664,0.064,0.928H296.543z
					 M296.439,484.377c-0.768-0.017-1.64,0.12-1.64,0.871c0,0.456,0.304,0.672,0.664,0.672c0.503,0,0.823-0.32,0.936-0.647
					c0.023-0.072,0.04-0.152,0.04-0.225V484.377z"/>
				<path d="M298.256,480.675h0.703v5.677h-0.703V480.675z"/>
				<path d="M300.535,484.545c0.016,0.951,0.623,1.343,1.327,1.343c0.504,0,0.808-0.088,1.071-0.2l0.12,0.504
					c-0.248,0.112-0.672,0.24-1.287,0.24c-1.191,0-1.903-0.784-1.903-1.951s0.688-2.087,1.815-2.087
					c1.263,0,1.599,1.111,1.599,1.823c0,0.144-0.016,0.256-0.023,0.328H300.535z M302.598,484.042
					c0.008-0.448-0.184-1.144-0.976-1.144c-0.711,0-1.023,0.655-1.079,1.144H302.598z"/>
				<path d="M304.055,485.632c0.208,0.136,0.576,0.28,0.928,0.28c0.512,0,0.752-0.256,0.752-0.576c0-0.336-0.2-0.52-0.72-0.712
					c-0.695-0.247-1.023-0.631-1.023-1.095c0-0.624,0.504-1.136,1.335-1.136c0.392,0,0.736,0.112,0.952,0.24l-0.177,0.512
					c-0.151-0.096-0.432-0.224-0.791-0.224c-0.416,0-0.647,0.239-0.647,0.527c0,0.319,0.231,0.464,0.735,0.655
					c0.672,0.256,1.016,0.592,1.016,1.168c0,0.68-0.528,1.159-1.447,1.159c-0.424,0-0.815-0.104-1.088-0.264L304.055,485.632z"/>
			</g>
			<g>
				<path d="M211.895,225.605c0.336-0.056,0.776-0.104,1.335-0.104c0.688,0,1.191,0.16,1.511,0.448
					c0.296,0.256,0.472,0.648,0.472,1.127c0,0.488-0.144,0.872-0.416,1.151c-0.368,0.392-0.968,0.592-1.647,0.592
					c-0.208,0-0.399-0.008-0.56-0.048v2.159h-0.696V225.605z M212.59,228.204c0.152,0.04,0.344,0.056,0.576,0.056
					c0.84,0,1.352-0.408,1.352-1.151c0-0.712-0.504-1.056-1.271-1.056c-0.304,0-0.536,0.024-0.656,0.056V228.204z"/>
				<path d="M215.999,228.268c0-0.456-0.008-0.848-0.032-1.207h0.616l0.024,0.759h0.032c0.176-0.52,0.6-0.848,1.072-0.848
					c0.08,0,0.136,0.008,0.2,0.024v0.664c-0.072-0.016-0.144-0.024-0.24-0.024c-0.496,0-0.848,0.376-0.943,0.904
					c-0.016,0.096-0.032,0.208-0.032,0.328v2.063h-0.696V228.268z"/>
				<path d="M218.927,229.124c0.016,0.952,0.624,1.343,1.327,1.343c0.504,0,0.808-0.088,1.071-0.2l0.12,0.504
					c-0.248,0.112-0.672,0.24-1.287,0.24c-1.191,0-1.903-0.784-1.903-1.951s0.688-2.087,1.815-2.087
					c1.264,0,1.599,1.112,1.599,1.823c0,0.144-0.016,0.256-0.024,0.328H218.927z M220.989,228.62
					c0.008-0.448-0.184-1.144-0.975-1.144c-0.712,0-1.023,0.656-1.08,1.144H220.989z"/>
				<path d="M222.447,230.211c0.208,0.136,0.576,0.28,0.927,0.28c0.512,0,0.752-0.256,0.752-0.576c0-0.335-0.2-0.52-0.72-0.711
					c-0.696-0.248-1.023-0.632-1.023-1.095c0-0.624,0.504-1.136,1.335-1.136c0.392,0,0.736,0.112,0.952,0.24l-0.176,0.512
					c-0.152-0.096-0.432-0.224-0.792-0.224c-0.416,0-0.648,0.24-0.648,0.528c0,0.32,0.232,0.464,0.736,0.656
					c0.671,0.256,1.016,0.591,1.016,1.167c0,0.68-0.528,1.16-1.447,1.16c-0.424,0-0.816-0.104-1.087-0.264L222.447,230.211z"/>
				<path d="M228.469,230.787c-0.184,0.096-0.592,0.224-1.111,0.224c-1.167,0-1.927-0.792-1.927-1.975
					c0-1.191,0.815-2.055,2.079-2.055c0.416,0,0.783,0.104,0.976,0.2l-0.16,0.544c-0.168-0.096-0.432-0.184-0.815-0.184
					c-0.888,0-1.367,0.656-1.367,1.463c0,0.896,0.576,1.447,1.343,1.447c0.399,0,0.664-0.104,0.863-0.191L228.469,230.787z"/>
				<path d="M232.749,228.964c0,1.431-0.992,2.055-1.927,2.055c-1.047,0-1.855-0.768-1.855-1.991c0-1.295,0.848-2.055,1.919-2.055
					C231.997,226.973,232.749,227.78,232.749,228.964z M229.679,229.004c0,0.847,0.487,1.487,1.175,1.487
					c0.671,0,1.175-0.631,1.175-1.503c0-0.656-0.328-1.487-1.159-1.487C230.038,227.5,229.679,228.268,229.679,229.004z"/>
				<path d="M234.486,225.949v1.112h1.007v0.536h-1.007v2.086c0,0.48,0.136,0.752,0.528,0.752c0.184,0,0.319-0.024,0.407-0.048
					l0.032,0.527c-0.137,0.056-0.352,0.096-0.624,0.096c-0.327,0-0.592-0.104-0.759-0.296c-0.201-0.208-0.272-0.552-0.272-1.007
					v-2.111h-0.6v-0.536h0.6v-0.928L234.486,225.949z"/>
				<path d="M237.134,225.949v1.112h1.008v0.536h-1.008v2.086c0,0.48,0.137,0.752,0.528,0.752c0.184,0,0.319-0.024,0.407-0.048
					l0.032,0.527c-0.136,0.056-0.352,0.096-0.624,0.096c-0.327,0-0.591-0.104-0.759-0.296c-0.2-0.208-0.272-0.552-0.272-1.007
					v-2.111h-0.6v-0.536h0.6v-0.928L237.134,225.949z"/>
			</g>
			<g>
				<path d="M44.484,363.468v-2.286l-1.703-3.104h0.792l0.76,1.488c0.208,0.407,0.368,0.735,0.536,1.111h0.016
					c0.152-0.352,0.336-0.704,0.544-1.111l0.775-1.488h0.792l-1.807,3.095v2.295H44.484z"/>
				<path d="M50.402,362.413c0,0.4,0.008,0.752,0.032,1.056h-0.624l-0.04-0.632h-0.016c-0.184,0.312-0.592,0.72-1.279,0.72
					c-0.608,0-1.335-0.336-1.335-1.694v-2.264h0.704v2.143c0,0.736,0.224,1.232,0.864,1.232c0.472,0,0.799-0.328,0.927-0.641
					c0.04-0.104,0.064-0.231,0.064-0.359v-2.375h0.704V362.413z"/>
				<path d="M51.572,360.646c0-0.399-0.008-0.728-0.032-1.048h0.616l0.032,0.624h0.024c0.216-0.368,0.576-0.712,1.215-0.712
					c0.528,0,0.928,0.32,1.096,0.775h0.016c0.12-0.215,0.272-0.383,0.432-0.504c0.232-0.176,0.488-0.271,0.855-0.271
					c0.512,0,1.271,0.336,1.271,1.68v2.278H56.41v-2.19c0-0.744-0.271-1.191-0.839-1.191c-0.4,0-0.711,0.295-0.832,0.639
					c-0.032,0.097-0.056,0.225-0.056,0.353v2.391h-0.688v-2.319c0-0.615-0.272-1.062-0.808-1.062c-0.44,0-0.759,0.352-0.872,0.703
					c-0.04,0.104-0.056,0.225-0.056,0.344v2.335h-0.688V360.646z"/>
				<path d="M60.387,363.468l-0.056-0.487h-0.024c-0.216,0.303-0.632,0.575-1.183,0.575c-0.784,0-1.184-0.552-1.184-1.111
					c0-0.936,0.832-1.447,2.327-1.439v-0.079c0-0.32-0.088-0.896-0.879-0.896c-0.36,0-0.736,0.112-1.007,0.288l-0.16-0.464
					c0.32-0.207,0.784-0.344,1.271-0.344c1.183,0,1.471,0.808,1.471,1.584v1.446c0,0.336,0.016,0.664,0.064,0.928H60.387z
					 M60.283,361.493c-0.768-0.016-1.639,0.121-1.639,0.872c0,0.456,0.304,0.672,0.664,0.672c0.504,0,0.824-0.319,0.936-0.647
					c0.024-0.072,0.04-0.152,0.04-0.225V361.493z"/>
			</g>
		</g>
		<g id="capital">
			<g>
				<path d="M227.175,308.689c0.396-0.071,0.945-0.126,1.692-0.126c0.811,0,1.405,0.171,1.792,0.495
					c0.36,0.297,0.594,0.774,0.594,1.341c0,0.576-0.18,1.054-0.522,1.378c-0.441,0.441-1.134,0.648-1.917,0.648
					c-0.207,0-0.396-0.009-0.541-0.036v2.287h-1.098V308.689z M228.273,311.516c0.135,0.035,0.315,0.045,0.541,0.045
					c0.828,0,1.332-0.405,1.332-1.117c0-0.674-0.468-1.035-1.233-1.035c-0.306,0-0.522,0.027-0.64,0.055V311.516z"/>
				<path d="M233.313,308.608v2.431h2.566v-2.431h1.106v6.068h-1.106v-2.674h-2.566v2.674h-1.107v-6.068H233.313z"/>
				<path d="M243.638,311.579c0,2.035-1.233,3.196-2.908,3.196c-1.711,0-2.791-1.306-2.791-3.088c0-1.864,1.171-3.179,2.881-3.179
					C242.593,308.508,243.638,309.85,243.638,311.579z M239.109,311.668c0,1.234,0.621,2.215,1.683,2.215
					c1.072,0,1.676-0.99,1.676-2.26c0-1.143-0.568-2.223-1.676-2.223C239.694,309.401,239.109,310.417,239.109,311.668z"/>
				<path d="M247.983,311.984h-2.286v1.782h2.557v0.91h-3.664v-6.068h3.529v0.909h-2.422v1.566h2.286V311.984z"/>
				<path d="M249.225,314.676v-6.068h1.261l1.566,2.602c0.404,0.676,0.756,1.378,1.035,2.035h0.018
					c-0.072-0.811-0.099-1.594-0.099-2.521v-2.115h1.026v6.068h-1.144l-1.585-2.665c-0.387-0.667-0.791-1.413-1.089-2.098
					l-0.026,0.009c0.045,0.783,0.054,1.584,0.054,2.584v2.17H249.225z"/>
				<path d="M256.416,308.608v6.068h-1.107v-6.068H256.416z"/>
				<path d="M260.935,314.676l-0.657-1.207c-0.261-0.468-0.433-0.792-0.603-1.143h-0.027c-0.145,0.351-0.307,0.675-0.549,1.143
					l-0.604,1.207h-1.27l1.801-3.07l-1.729-2.998h1.27l0.656,1.252c0.198,0.377,0.343,0.675,0.504,1.017h0.019
					c0.162-0.378,0.288-0.647,0.478-1.017l0.648-1.252h1.27l-1.774,2.962l1.846,3.106H260.935z"/>
			</g>
		</g>
	</g>
	<g id="state_1_">
		<g>
			<path d="M27.724,508.338h-2.527c-0.722,0-1.083,0.431-1.083,1.292c0,0.202,0.107,0.304,0.323,0.304
				c0.062,0,0.158-0.01,0.284-0.028c0.127-0.02,0.222-0.028,0.285-0.028c0.469,0,0.703,0.373,0.703,1.12
				c0,0.406-0.107,0.735-0.323,0.988c-0.215,0.254-0.5,0.38-0.854,0.38c-0.178,0-0.57-0.044-1.178-0.133
				c-0.267-0.038-0.64-0.057-1.121-0.057c-0.52,0-0.925,0.019-1.216,0.057c-0.672,0.089-1.071,0.133-1.197,0.133
				c-0.393,0-0.713-0.12-0.96-0.36c-0.247-0.241-0.37-0.558-0.37-0.95c0-0.887,0.335-1.33,1.007-1.33
				c0.076,0,0.196,0.01,0.361,0.028c0.164,0.02,0.285,0.028,0.36,0.028c0.241,0,0.438-0.133,0.59-0.398
				c0.037-0.076,0.126-0.311,0.266-0.703l2.622-7.467c0.304-0.849,0.646-1.381,1.025-1.597c0.279-0.139,0.894-0.209,1.844-0.209
				c1.063,0,1.735,0.066,2.014,0.2c0.278,0.133,0.507,0.503,0.684,1.111l2.433,8.094c0.189,0.646,0.411,0.969,0.665,0.969
				c0.076,0,0.209-0.019,0.398-0.057h0.209c0.71,0,1.064,0.418,1.064,1.254c0,0.418-0.127,0.754-0.38,1.007
				c-0.254,0.254-0.583,0.38-0.988,0.38c-0.178,0-0.412-0.019-0.703-0.057c-0.354-0.063-0.589-0.095-0.703-0.095
				c-0.278-0.025-0.64-0.038-1.083-0.038c-0.481,0-0.805,0.013-0.969,0.038c-0.646,0.101-1.052,0.151-1.216,0.151
				c-0.342,0-0.624-0.13-0.846-0.39c-0.222-0.259-0.332-0.585-0.332-0.979c0-0.747,0.24-1.12,0.722-1.12
				c0.063,0,0.158,0.009,0.285,0.028c0.126,0.019,0.222,0.028,0.285,0.028c0.24,0,0.36-0.133,0.36-0.399
				c0-0.342-0.069-0.627-0.209-0.854C28.115,508.452,27.938,508.338,27.724,508.338z M27.438,505.431l-0.912-3.896l-1.178,4.047
				c-0.014,0.038-0.02,0.083-0.02,0.134c0,0.151,0.158,0.228,0.475,0.228h1.179c0.329,0,0.494-0.088,0.494-0.266
				C27.477,505.691,27.464,505.609,27.438,505.431z"/>
			<path d="M45.735,504.966c-0.368,0.254-0.944,0.47-1.729,0.646c0.912,0.152,1.558,0.422,1.938,0.81
				c0.38,0.387,0.569,0.962,0.569,1.723c0,0.229,0,0.45,0,0.666v0.229c0,0.521,0.15,0.78,0.452,0.78
				c0.075,0,0.191-0.016,0.349-0.047c0.156-0.032,0.272-0.048,0.348-0.048c0.276,0,0.499,0.117,0.669,0.352
				c0.169,0.234,0.254,0.541,0.254,0.921c0,0.418-0.124,0.751-0.37,0.998c-0.247,0.247-0.573,0.37-0.979,0.37
				c-0.14,0-0.355-0.016-0.646-0.047c-0.291-0.032-0.507-0.048-0.646-0.048c-0.152,0-0.378,0.016-0.675,0.048
				c-0.298,0.031-0.522,0.047-0.675,0.047c-0.469,0-0.846-0.192-1.13-0.579c-0.285-0.387-0.428-0.896-0.428-1.529
				c0-0.063,0.019-0.107,0.057-0.134v-1.102v-0.133c0-0.658-0.168-1.114-0.503-1.368c-0.336-0.253-0.94-0.38-1.814-0.38
				c-0.355,0-0.577,0.095-0.665,0.285c-0.063,0.127-0.096,0.36-0.096,0.703v0.437c0,0.861,0.158,1.292,0.476,1.292
				c0.088,0,0.225-0.021,0.408-0.066c0.184-0.044,0.326-0.066,0.428-0.066c0.266,0,0.49,0.12,0.674,0.361
				c0.184,0.24,0.276,0.538,0.276,0.893c0,0.925-0.444,1.387-1.33,1.387c-0.305,0-0.716-0.031-1.235-0.095s-0.969-0.095-1.349-0.095
				c-0.406,0-0.874,0.031-1.406,0.095s-0.981,0.095-1.35,0.095c-0.924,0-1.387-0.462-1.387-1.387c0-0.354,0.099-0.652,0.295-0.893
				c0.196-0.241,0.439-0.361,0.731-0.361c0.114,0,0.272,0.022,0.475,0.066c0.203,0.045,0.349,0.066,0.438,0.066
				c0.342,0,0.513-0.431,0.513-1.292v-5.263c0-0.405-0.013-0.665-0.038-0.779c-0.063-0.329-0.222-0.494-0.475-0.494
				c-0.102,0-0.251,0.022-0.446,0.066c-0.197,0.045-0.352,0.066-0.466,0.066c-0.292,0-0.535-0.12-0.731-0.36
				s-0.295-0.538-0.295-0.894c0-0.405,0.124-0.74,0.371-1.007c0.247-0.266,0.566-0.398,0.959-0.398c0.076,0,0.133,0.006,0.171,0.019
				l1.35,0.133c0.38,0.038,0.785,0.058,1.216,0.058c0.747,0,1.69-0.045,2.831-0.134c0.76-0.05,1.323-0.075,1.69-0.075
				c1.203,0,2.157,0.301,2.859,0.904c0.703,0.603,1.055,1.424,1.055,2.465C46.723,503.824,46.394,504.522,45.735,504.966z
				 M41.422,502.03c-0.507,0-0.836,0.032-0.988,0.096c-0.278,0.128-0.418,0.402-0.418,0.822v1.148c0,0.293,0.048,0.484,0.143,0.574
				c0.095,0.089,0.275,0.134,0.542,0.134c1.646,0,2.47-0.491,2.47-1.474C43.17,502.463,42.587,502.03,41.422,502.03z"/>
			<path d="M50.694,509.858c0.253,0,0.411-0.164,0.475-0.494c0.025-0.126,0.038-0.393,0.038-0.798v-5.263
				c0-0.405-0.013-0.665-0.038-0.779c-0.063-0.329-0.222-0.494-0.475-0.494c-0.102,0-0.251,0.022-0.446,0.066
				c-0.197,0.045-0.352,0.066-0.466,0.066c-0.292,0-0.535-0.12-0.731-0.36s-0.295-0.538-0.295-0.894c0-0.43,0.124-0.77,0.371-1.017
				s0.579-0.37,0.997-0.37c0.19,0,0.633,0.038,1.33,0.114c0.469,0.051,0.925,0.076,1.368,0.076c0.354,0,0.864-0.032,1.529-0.096
				c0.665-0.062,1.104-0.095,1.32-0.095c0.925,0,1.387,0.463,1.387,1.387c0,0.355-0.098,0.653-0.294,0.894s-0.44,0.36-0.731,0.36
				c-0.102,0-0.254-0.021-0.456-0.066c-0.203-0.044-0.354-0.066-0.456-0.066c-0.342,0-0.513,0.425-0.513,1.273v5.263
				c0,0.861,0.171,1.292,0.513,1.292c0.102,0,0.253-0.021,0.456-0.066c0.202-0.044,0.354-0.066,0.456-0.066
				c0.291,0,0.535,0.12,0.731,0.361c0.196,0.24,0.294,0.538,0.294,0.893c0,0.405-0.123,0.741-0.37,1.007
				c-0.247,0.267-0.561,0.399-0.94,0.399c-0.076,0-0.133-0.007-0.171-0.02l-1.197-0.151c-0.304-0.038-0.64-0.058-1.007-0.058
				c-0.57,0-1.165,0.035-1.786,0.104c-0.747,0.083-1.234,0.125-1.463,0.125c-0.405,0-0.734-0.128-0.988-0.383
				c-0.253-0.255-0.38-0.594-0.38-1.015c0-0.37,0.099-0.673,0.295-0.908c0.196-0.236,0.446-0.354,0.75-0.354
				c0.102,0,0.25,0.022,0.447,0.066C50.443,509.836,50.593,509.858,50.694,509.858z"/>
			<path d="M58.37,509.459l6.062-7.657h-2.565c-0.367,0-0.617,0.054-0.75,0.161c-0.134,0.107-0.2,0.301-0.2,0.58
				c0,0.177,0.007,0.316,0.02,0.418l0.038,0.246c0.025,0.216,0.038,0.343,0.038,0.381c0,0.367-0.143,0.681-0.428,0.94
				s-0.631,0.39-1.035,0.39c-0.444,0-0.796-0.126-1.055-0.378c-0.26-0.251-0.39-0.598-0.39-1.037c0-0.088,0.025-0.371,0.076-0.85
				c0.038-0.364,0.057-0.616,0.057-0.755c0-0.125-0.019-0.414-0.057-0.867c-0.013-0.151-0.02-0.364-0.02-0.642
				c0-0.34,0.107-0.565,0.323-0.679c0.152-0.076,0.418-0.12,0.798-0.133l0.836-0.075c0.063,0,0.5,0.019,1.312,0.057
				c0.38,0.013,1.045,0.019,1.995,0.019h1.994c0.241,0,0.602-0.012,1.083-0.038c0.481-0.024,0.843-0.037,1.083-0.037
				c0.811,0,1.217,0.437,1.217,1.311c0,0.443-0.235,0.957-0.703,1.539l-6.138,7.6h2.812c0.544,0,0.88-0.012,1.007-0.038
				c0.354-0.101,0.532-0.335,0.532-0.702c0-0.14-0.017-0.361-0.048-0.665c-0.031-0.305-0.047-0.532-0.047-0.685
				c0.012-0.418,0.146-0.757,0.398-1.017c0.253-0.259,0.596-0.39,1.026-0.39c0.418,0,0.753,0.134,1.007,0.399
				c0.253,0.266,0.38,0.621,0.38,1.064c0,0.151-0.019,0.393-0.057,0.722c-0.051,0.443-0.076,0.805-0.076,1.083
				c0,0.165,0.021,0.415,0.066,0.75c0.044,0.336,0.066,0.587,0.066,0.751c0,0.76-0.469,1.14-1.406,1.14h-0.095l-0.988-0.057
				c-0.215-0.013-0.867-0.02-1.957-0.02h-1.995c-0.962-0.013-1.627-0.006-1.994,0.02c-0.596,0.038-1.103,0.057-1.521,0.057
				c-0.431,0-0.772-0.12-1.025-0.36c-0.254-0.241-0.381-0.558-0.381-0.95c0-0.278,0.134-0.64,0.399-1.083L58.37,509.459z"/>
			<path d="M76.116,512.613c-1.926,0-3.414-0.582-4.465-1.748c-1.052-1.165-1.577-2.818-1.577-4.959
				c0-2.064,0.522-3.688,1.567-4.873s2.485-1.776,4.322-1.776c1.925,0,3.427,0.576,4.503,1.729c1.076,1.153,1.615,2.762,1.615,4.826
				c0,2.141-0.522,3.81-1.567,5.007C79.47,512.014,78.003,512.613,76.116,512.613z M76.097,501.916c-1.646,0-2.47,1.343-2.47,4.028
				c0,1.279,0.158,2.229,0.475,2.851c0.393,0.772,1.052,1.158,1.977,1.158c1.634,0,2.451-1.304,2.451-3.914
				c0-1.443-0.193-2.491-0.58-3.145C77.562,502.243,76.945,501.916,76.097,501.916z"/>
			<path d="M90.574,500.795l3.344,8.132v-5.624c0-0.849-0.164-1.273-0.493-1.273c-0.089,0-0.219,0.022-0.39,0.066
				c-0.171,0.045-0.302,0.066-0.39,0.066c-0.267,0-0.491-0.12-0.675-0.36s-0.275-0.538-0.275-0.894c0-0.418,0.12-0.753,0.361-1.007
				c0.24-0.253,0.557-0.38,0.95-0.38c0.202,0,0.551,0.032,1.045,0.095c0.493,0.063,0.931,0.096,1.311,0.096
				c0.342,0,0.741-0.025,1.197-0.076c0.684-0.076,1.108-0.114,1.272-0.114c0.405,0,0.734,0.127,0.988,0.38
				c0.253,0.254,0.38,0.589,0.38,1.007c0,0.355-0.102,0.653-0.304,0.894c-0.203,0.24-0.45,0.36-0.741,0.36
				c-0.114,0-0.266-0.021-0.456-0.066c-0.189-0.044-0.336-0.066-0.437-0.066c-0.254,0-0.418,0.159-0.494,0.476
				c-0.025,0.126-0.038,0.393-0.038,0.798v7.732c0,0.836-0.342,1.254-1.026,1.254c-0.127,0-0.319-0.009-0.579-0.028
				c-0.26-0.019-0.453-0.028-0.58-0.028c-0.013,0-0.322,0.02-0.931,0.057h-0.418c-0.367,0-0.64-0.088-0.817-0.267
				c-0.101-0.102-0.246-0.374-0.437-0.818l-3.667-8.377v5.738c0,0.861,0.164,1.292,0.494,1.292c0.088,0,0.225-0.021,0.408-0.066
				c0.184-0.044,0.32-0.066,0.408-0.066c0.267,0,0.491,0.12,0.675,0.361c0.184,0.24,0.275,0.538,0.275,0.893
				c0,0.925-0.443,1.387-1.33,1.387c-0.253,0-0.671-0.038-1.254-0.113c-0.393-0.051-0.785-0.076-1.178-0.076
				c-0.329,0-0.772,0.031-1.33,0.095s-0.912,0.095-1.064,0.095c-0.924,0-1.387-0.462-1.387-1.387c0-0.354,0.099-0.652,0.295-0.893
				c0.196-0.241,0.439-0.361,0.731-0.361c0.114,0,0.269,0.022,0.466,0.066c0.195,0.045,0.345,0.066,0.446,0.066
				c0.342,0,0.513-0.431,0.513-1.292v-5.263c0-0.849-0.171-1.273-0.513-1.273c-0.102,0-0.251,0.022-0.446,0.066
				c-0.197,0.045-0.352,0.066-0.466,0.066c-0.292,0-0.535-0.12-0.731-0.36s-0.295-0.538-0.295-0.894c0-0.418,0.127-0.753,0.38-1.007
				c0.254-0.253,0.583-0.38,0.988-0.38c0.266,0,0.652,0.032,1.159,0.095c0.506,0.063,0.905,0.096,1.197,0.096
				c0.24,0,0.651-0.025,1.234-0.076c0.267-0.013,0.57-0.038,0.912-0.076c0.152-0.025,0.316-0.038,0.494-0.038
				c0.342,0,0.608,0.133,0.798,0.399C90.232,500.023,90.372,500.314,90.574,500.795z"/>
			<path d="M107.712,508.338h-2.527c-0.722,0-1.083,0.431-1.083,1.292c0,0.202,0.107,0.304,0.323,0.304
				c0.062,0,0.158-0.01,0.284-0.028c0.127-0.02,0.222-0.028,0.285-0.028c0.469,0,0.703,0.373,0.703,1.12
				c0,0.406-0.107,0.735-0.323,0.988c-0.215,0.254-0.5,0.38-0.854,0.38c-0.178,0-0.57-0.044-1.178-0.133
				c-0.267-0.038-0.64-0.057-1.121-0.057c-0.52,0-0.925,0.019-1.216,0.057c-0.672,0.089-1.071,0.133-1.197,0.133
				c-0.393,0-0.713-0.12-0.96-0.36c-0.247-0.241-0.37-0.558-0.37-0.95c0-0.887,0.335-1.33,1.007-1.33
				c0.076,0,0.196,0.01,0.361,0.028c0.164,0.02,0.285,0.028,0.36,0.028c0.241,0,0.438-0.133,0.59-0.398
				c0.037-0.076,0.126-0.311,0.266-0.703l2.622-7.467c0.304-0.849,0.646-1.381,1.025-1.597c0.279-0.139,0.894-0.209,1.844-0.209
				c1.063,0,1.735,0.066,2.014,0.2c0.278,0.133,0.507,0.503,0.684,1.111l2.433,8.094c0.189,0.646,0.411,0.969,0.665,0.969
				c0.076,0,0.209-0.019,0.398-0.057h0.209c0.71,0,1.064,0.418,1.064,1.254c0,0.418-0.127,0.754-0.38,1.007
				c-0.254,0.254-0.583,0.38-0.988,0.38c-0.178,0-0.412-0.019-0.703-0.057c-0.354-0.063-0.589-0.095-0.703-0.095
				c-0.278-0.025-0.64-0.038-1.083-0.038c-0.481,0-0.805,0.013-0.969,0.038c-0.646,0.101-1.052,0.151-1.216,0.151
				c-0.342,0-0.624-0.13-0.846-0.39c-0.222-0.259-0.332-0.585-0.332-0.979c0-0.747,0.24-1.12,0.722-1.12
				c0.063,0,0.158,0.009,0.285,0.028c0.126,0.019,0.222,0.028,0.285,0.028c0.24,0,0.36-0.133,0.36-0.399
				c0-0.342-0.069-0.627-0.209-0.854C108.104,508.452,107.927,508.338,107.712,508.338z M107.427,505.431l-0.912-3.896l-1.178,4.047
				c-0.014,0.038-0.02,0.083-0.02,0.134c0,0.151,0.158,0.228,0.475,0.228h1.179c0.329,0,0.494-0.088,0.494-0.266
				C107.465,505.691,107.452,505.609,107.427,505.431z"/>
		</g>
	</g>
	<g id="county_1_">
		<g>
			<path fill="#BE0926" d="M387.212,202.559l-0.58,1.909h-1.27l2.16-6.736h1.568l2.189,6.736h-1.32l-0.609-1.909H387.212z
				 M389.142,201.63l-0.531-1.659c-0.129-0.41-0.24-0.87-0.34-1.259h-0.02c-0.1,0.39-0.199,0.859-0.32,1.259l-0.52,1.659H389.142z"
				/>
			<path fill="#BE0926" d="M392.224,197.822c0.439-0.08,1.049-0.14,1.879-0.14c0.898,0,1.559,0.19,1.988,0.549
				c0.4,0.33,0.66,0.86,0.66,1.489c0,0.64-0.201,1.169-0.58,1.529c-0.49,0.49-1.26,0.72-2.129,0.72c-0.23,0-0.439-0.01-0.6-0.04
				v2.539h-1.219V197.822z M393.442,200.96c0.15,0.04,0.35,0.05,0.6,0.05c0.92,0,1.479-0.45,1.479-1.239
				c0-0.75-0.52-1.149-1.369-1.149c-0.34,0-0.58,0.03-0.709,0.06V200.96z"/>
			<path fill="#BE0926" d="M398.452,202.559l-0.58,1.909h-1.27l2.16-6.736h1.568l2.189,6.736h-1.32l-0.609-1.909H398.452z
				 M400.382,201.63l-0.531-1.659c-0.129-0.41-0.24-0.87-0.34-1.259h-0.02c-0.1,0.39-0.199,0.859-0.32,1.259l-0.52,1.659H400.382z"
				/>
			<path fill="#BE0926" d="M408.079,204.269c-0.289,0.15-0.93,0.3-1.738,0.3c-2.139,0-3.439-1.339-3.439-3.388
				c0-2.219,1.541-3.558,3.6-3.558c0.809,0,1.389,0.17,1.639,0.3l-0.27,0.979c-0.32-0.14-0.76-0.26-1.32-0.26
				c-1.369,0-2.357,0.859-2.357,2.479c0,1.479,0.869,2.429,2.348,2.429c0.5,0,1.02-0.1,1.34-0.25L408.079,204.269z"/>
			<path fill="#BE0926" d="M410.36,197.732v2.699h2.85v-2.699h1.229v6.736h-1.229V201.5h-2.85v2.968h-1.229v-6.736H410.36z"/>
			<path fill="#BE0926" d="M419.62,201.48h-2.539v1.979h2.838v1.009h-4.066v-6.736h3.918v1.009h-2.689v1.739h2.539V201.48z"/>
		</g>
		<g>
			<g>
				<path fill="#BE0926" d="M348.866,453.227c-0.291,0.15-0.93,0.3-1.74,0.3c-2.139,0-3.438-1.339-3.438-3.388
					c0-2.219,1.539-3.559,3.598-3.559c0.811,0,1.389,0.17,1.639,0.3l-0.27,0.979c-0.32-0.14-0.76-0.26-1.318-0.26
					c-1.369,0-2.359,0.86-2.359,2.479c0,1.479,0.869,2.429,2.35,2.429c0.498,0,1.02-0.1,1.338-0.249L348.866,453.227z"/>
				<path fill="#BE0926" d="M355.636,449.989c0,2.259-1.369,3.549-3.229,3.549c-1.898,0-3.1-1.449-3.1-3.429
					c0-2.068,1.301-3.528,3.199-3.528C354.476,446.581,355.636,448.07,355.636,449.989z M350.608,450.089
					c0,1.369,0.689,2.458,1.869,2.458c1.189,0,1.857-1.099,1.857-2.508c0-1.27-0.629-2.469-1.857-2.469
					C351.257,447.571,350.608,448.7,350.608,450.089z"/>
				<path fill="#BE0926" d="M361.526,453.227c-0.291,0.15-0.93,0.3-1.74,0.3c-2.139,0-3.438-1.339-3.438-3.388
					c0-2.219,1.539-3.559,3.598-3.559c0.811,0,1.389,0.17,1.639,0.3l-0.27,0.979c-0.32-0.14-0.76-0.26-1.318-0.26
					c-1.369,0-2.359,0.86-2.359,2.479c0,1.479,0.869,2.429,2.35,2.429c0.498,0,1.02-0.1,1.338-0.249L361.526,453.227z"/>
				<path fill="#BE0926" d="M363.808,446.691v2.698h2.848v-2.698h1.23v6.736h-1.23v-2.969h-2.848v2.969h-1.229v-6.736H363.808z"/>
				<path fill="#BE0926" d="M370.526,446.691v6.736h-1.229v-6.736H370.526z"/>
				<path fill="#BE0926" d="M371.909,452.088c0.398,0.229,0.998,0.43,1.629,0.43c0.789,0,1.229-0.37,1.229-0.92
					c0-0.51-0.34-0.81-1.199-1.119c-1.109-0.4-1.818-0.989-1.818-1.959c0-1.1,0.92-1.939,2.379-1.939c0.729,0,1.27,0.16,1.619,0.34
					l-0.301,0.99c-0.24-0.13-0.709-0.32-1.338-0.32c-0.781,0-1.121,0.42-1.121,0.81c0,0.52,0.391,0.76,1.289,1.109
					c1.17,0.439,1.74,1.029,1.74,1.999c0,1.079-0.82,2.019-2.559,2.019c-0.709,0-1.449-0.199-1.818-0.42L371.909,452.088z"/>
				<path fill="#BE0926" d="M380.896,450.439h-2.539v1.979h2.84v1.01h-4.068v-6.736h3.918v1.01h-2.689v1.738h2.539V450.439z"/>
			</g>
		</g>
		<g>
			<g>
				<path fill="#BE0926" d="M233.754,136.92c-0.29,0.15-0.93,0.3-1.739,0.3c-2.139,0-3.438-1.339-3.438-3.388
					c0-2.219,1.539-3.558,3.598-3.558c0.81,0,1.389,0.17,1.639,0.3l-0.27,0.979c-0.32-0.14-0.76-0.26-1.319-0.26
					c-1.369,0-2.359,0.859-2.359,2.479c0,1.479,0.87,2.429,2.349,2.429c0.5,0,1.019-0.1,1.339-0.25L233.754,136.92z"/>
				<path fill="#BE0926" d="M240.523,133.682c0,2.259-1.37,3.548-3.229,3.548c-1.899,0-3.099-1.449-3.099-3.428
					c0-2.069,1.3-3.528,3.199-3.528C239.364,130.274,240.523,131.763,240.523,133.682z M235.496,133.782
					c0,1.37,0.689,2.459,1.868,2.459c1.189,0,1.859-1.1,1.859-2.509c0-1.269-0.629-2.469-1.859-2.469
					C236.146,131.263,235.496,132.393,235.496,133.782z"/>
				<path fill="#BE0926" d="M246.414,136.92c-0.29,0.15-0.93,0.3-1.739,0.3c-2.139,0-3.438-1.339-3.438-3.388
					c0-2.219,1.539-3.558,3.598-3.558c0.81,0,1.389,0.17,1.639,0.3l-0.27,0.979c-0.32-0.14-0.76-0.26-1.319-0.26
					c-1.369,0-2.358,0.859-2.358,2.479c0,1.479,0.869,2.429,2.348,2.429c0.5,0,1.02-0.1,1.34-0.25L246.414,136.92z"/>
				<path fill="#BE0926" d="M253.184,133.682c0,2.259-1.37,3.548-3.229,3.548c-1.899,0-3.099-1.449-3.099-3.428
					c0-2.069,1.3-3.528,3.199-3.528C252.024,130.274,253.184,131.763,253.184,133.682z M248.156,133.782
					c0,1.37,0.689,2.459,1.868,2.459c1.189,0,1.859-1.1,1.859-2.509c0-1.269-0.629-2.469-1.859-2.469
					C248.806,131.263,248.156,132.393,248.156,133.782z"/>
				<path fill="#BE0926" d="M254.247,137.12v-6.736h1.398l1.739,2.889c0.45,0.75,0.84,1.529,1.149,2.258h0.02
					c-0.079-0.899-0.109-1.769-0.109-2.798v-2.349h1.14v6.736h-1.27l-1.759-2.958c-0.43-0.739-0.88-1.569-1.209-2.329l-0.031,0.01
					c0.051,0.87,0.061,1.759,0.061,2.869v2.409H254.247z"/>
				<path fill="#BE0926" d="M262.235,130.384v6.736h-1.229v-6.736H262.235z"/>
				<path fill="#BE0926" d="M263.646,137.12v-6.736h1.399l1.738,2.889c0.451,0.75,0.84,1.529,1.15,2.258h0.02
					c-0.08-0.899-0.109-1.769-0.109-2.798v-2.349h1.139v6.736h-1.27l-1.758-2.958c-0.431-0.739-0.881-1.569-1.21-2.329l-0.03,0.01
					c0.051,0.87,0.061,1.759,0.061,2.869v2.409H263.646z"/>
				<path fill="#BE0926" d="M276.384,133.682c0,2.259-1.37,3.548-3.229,3.548c-1.899,0-3.099-1.449-3.099-3.428
					c0-2.069,1.3-3.528,3.198-3.528C275.224,130.274,276.384,131.763,276.384,133.682z M271.356,133.782
					c0,1.37,0.689,2.459,1.868,2.459c1.189,0,1.859-1.1,1.859-2.509c0-1.269-0.63-2.469-1.859-2.469
					C272.005,131.263,271.356,132.393,271.356,133.782z"/>
			</g>
		</g>
		<g>
			<g>
				<path fill="#BE0926" d="M304.542,304.631c-0.43,0.16-1.27,0.381-2.17,0.381c-1.139,0-1.998-0.29-2.639-0.9
					c-0.6-0.569-0.949-1.459-0.939-2.479c0-2.129,1.52-3.498,3.748-3.498c0.83,0,1.48,0.17,1.789,0.32l-0.27,0.989
					c-0.369-0.159-0.818-0.29-1.529-0.29c-1.439,0-2.447,0.85-2.447,2.419c0,1.529,0.939,2.438,2.338,2.438
					c0.439,0,0.77-0.06,0.93-0.14v-1.679h-1.189v-0.97h2.379V304.631z"/>
				<path fill="#BE0926" d="M307.034,298.206v6.736h-1.229v-6.736H307.034z"/>
				<path fill="#BE0926" d="M308.444,298.206h1.229v5.707h2.77v1.029h-3.998V298.206z"/>
				<path fill="#BE0926" d="M314.763,303.033l-0.578,1.909h-1.27l2.158-6.736h1.568l2.189,6.736h-1.318l-0.611-1.909H314.763z
					 M316.692,302.104l-0.529-1.66c-0.131-0.409-0.24-0.869-0.34-1.259h-0.02c-0.102,0.39-0.201,0.859-0.32,1.259l-0.52,1.66
					H316.692z"/>
			</g>
		</g>
		<g>
			<g>
				<path fill="#BE0926" d="M342.226,365.319c-0.43,0.16-1.27,0.379-2.17,0.379c-1.139,0-1.998-0.289-2.639-0.898
					c-0.6-0.57-0.949-1.459-0.939-2.479c0-2.129,1.52-3.498,3.748-3.498c0.83,0,1.48,0.17,1.789,0.319l-0.27,0.989
					c-0.369-0.16-0.818-0.289-1.529-0.289c-1.439,0-2.447,0.849-2.447,2.418c0,1.529,0.939,2.438,2.338,2.438
					c0.439,0,0.77-0.06,0.93-0.14v-1.68h-1.189v-0.969h2.379V365.319z"/>
				<path fill="#BE0926" d="M343.489,358.982c0.459-0.079,1.148-0.14,1.857-0.14c0.971,0,1.629,0.16,2.08,0.539
					c0.369,0.311,0.58,0.78,0.58,1.35c0,0.869-0.59,1.459-1.221,1.689v0.029c0.48,0.18,0.77,0.65,0.939,1.3
					c0.211,0.839,0.391,1.619,0.529,1.879h-1.268c-0.102-0.2-0.26-0.749-0.451-1.589c-0.189-0.88-0.51-1.16-1.209-1.18h-0.619v2.769
					h-1.219V358.982z M344.708,361.96h0.729c0.83,0,1.35-0.44,1.35-1.109c0-0.739-0.52-1.079-1.318-1.079
					c-0.391,0-0.641,0.029-0.76,0.06V361.96z"/>
				<path fill="#BE0926" d="M350.597,363.719l-0.578,1.909h-1.27l2.158-6.736h1.568l2.189,6.736h-1.318l-0.611-1.909H350.597z
					 M352.526,362.79l-0.529-1.658c-0.131-0.41-0.24-0.87-0.34-1.26h-0.02c-0.102,0.39-0.201,0.859-0.32,1.26l-0.52,1.658H352.526z"
					/>
				<path fill="#BE0926" d="M356.837,358.892v2.698h2.848v-2.698h1.23v6.736h-1.23v-2.968h-2.848v2.968h-1.229v-6.736H356.837z"/>
				<path fill="#BE0926" d="M363.677,363.719l-0.58,1.909h-1.27l2.16-6.736h1.568l2.189,6.736h-1.32l-0.609-1.909H363.677z
					 M365.606,362.79l-0.531-1.658c-0.129-0.41-0.24-0.87-0.34-1.26h-0.02c-0.1,0.39-0.199,0.859-0.32,1.26l-0.52,1.658H365.606z"/>
				<path fill="#BE0926" d="M374.345,362.879c-0.041-0.869-0.09-1.918-0.08-2.828h-0.031c-0.219,0.82-0.498,1.729-0.799,2.578
					l-0.979,2.919h-0.951l-0.898-2.878c-0.26-0.859-0.5-1.779-0.68-2.619h-0.02c-0.031,0.88-0.07,1.949-0.121,2.869l-0.148,2.708
					h-1.15l0.449-6.736h1.619l0.881,2.708c0.238,0.79,0.449,1.59,0.619,2.34h0.029c0.18-0.73,0.41-1.56,0.67-2.35l0.93-2.698h1.6
					l0.389,6.736h-1.199L374.345,362.879z"/>
			</g>
		</g>
		<g>
			<g>
				<path fill="#BE0926" d="M392.573,341.329c-0.324,0.119-0.953,0.285-1.629,0.285c-0.857,0-1.502-0.218-1.982-0.676
					c-0.451-0.428-0.713-1.096-0.705-1.861c0-1.6,1.141-2.628,2.814-2.628c0.623,0,1.111,0.128,1.344,0.24l-0.203,0.743
					c-0.277-0.12-0.615-0.218-1.148-0.218c-1.08,0-1.84,0.638-1.84,1.817c0,1.148,0.707,1.831,1.758,1.831
					c0.33,0,0.578-0.045,0.697-0.104v-1.262h-0.893v-0.729h1.787V341.329z"/>
				<path fill="#BE0926" d="M393.515,336.569c0.344-0.061,0.863-0.105,1.396-0.105c0.727,0,1.223,0.12,1.561,0.406
					c0.277,0.232,0.436,0.585,0.436,1.013c0,0.653-0.443,1.097-0.916,1.269v0.023c0.361,0.135,0.578,0.487,0.705,0.976
					c0.158,0.63,0.293,1.216,0.398,1.411h-0.953c-0.074-0.15-0.195-0.562-0.338-1.193c-0.143-0.661-0.383-0.871-0.908-0.887h-0.465
					v2.08h-0.916V336.569z M394.431,338.805h0.547c0.623,0,1.014-0.33,1.014-0.832c0-0.557-0.391-0.812-0.99-0.812
					c-0.293,0-0.48,0.022-0.57,0.045V338.805z"/>
				<path fill="#BE0926" d="M400.612,339.317h-1.908v1.486h2.133v0.758h-3.055V336.5h2.941v0.759h-2.02v1.306h1.908V339.317z"/>
				<path fill="#BE0926" d="M404.474,339.317h-1.906v1.486h2.133v0.758h-3.057V336.5h2.943v0.759h-2.02v1.306h1.906V339.317z"/>
				<path fill="#BE0926" d="M405.507,341.561V336.5h1.051l1.307,2.17c0.338,0.563,0.629,1.148,0.863,1.697h0.014
					c-0.059-0.676-0.082-1.329-0.082-2.103V336.5h0.855v5.061h-0.953l-1.32-2.223c-0.324-0.555-0.662-1.178-0.91-1.748l-0.021,0.007
					c0.037,0.653,0.045,1.321,0.045,2.155v1.809H405.507z"/>
				<path fill="#BE0926" d="M412.183,339.241v0.639h-1.914v-0.639H412.183z"/>
				<path fill="#BE0926" d="M395.019,345.5h0.922v4.287h2.08v0.773h-3.002V345.5z"/>
				<path fill="#BE0926" d="M401.546,348.317h-1.908v1.486h2.133v0.758h-3.055V345.5h2.941v0.759h-2.02v1.306h1.908V348.317z"/>
				<path fill="#BE0926" d="M405.407,348.317h-1.906v1.486h2.133v0.758h-3.057V345.5h2.943v0.759h-2.02v1.306h1.906V348.317z"/>
			</g>
		</g>
		<g>
			<g>
				<path fill="#BE0926" d="M98.981,265.233h1.229v5.707h2.769v1.029h-3.998V265.233z"/>
				<path fill="#BE0926" d="M105.301,270.061l-0.58,1.908h-1.269l2.159-6.736h1.569l2.188,6.736h-1.319l-0.609-1.908H105.301z
					 M107.229,269.131l-0.53-1.659c-0.13-0.409-0.24-0.87-0.34-1.259h-0.02c-0.1,0.389-0.2,0.859-0.32,1.259l-0.52,1.659H107.229z"
					/>
				<path fill="#BE0926" d="M112.381,265.323c0.44-0.079,1.049-0.139,1.879-0.139c0.9,0,1.56,0.189,1.989,0.549
					c0.399,0.33,0.66,0.859,0.66,1.489c0,0.64-0.2,1.169-0.58,1.529c-0.49,0.489-1.259,0.72-2.128,0.72c-0.23,0-0.44-0.01-0.6-0.04
					v2.538h-1.219V265.323z M113.6,268.461c0.15,0.04,0.35,0.051,0.6,0.051c0.919,0,1.479-0.45,1.479-1.24
					c0-0.749-0.52-1.148-1.369-1.148c-0.34,0-0.58,0.029-0.71,0.06V268.461z"/>
				<path fill="#BE0926" d="M118.611,270.061l-0.58,1.908h-1.269l2.159-6.736h1.569l2.188,6.736h-1.319l-0.609-1.908H118.611z
					 M120.54,269.131l-0.53-1.659c-0.13-0.409-0.24-0.87-0.34-1.259h-0.02c-0.1,0.389-0.2,0.859-0.32,1.259l-0.52,1.659H120.54z"/>
				<path fill="#BE0926" d="M123.211,271.29l3.448-5.007v-0.03h-3.138v-1.02h4.737v0.721l-3.398,4.957v0.039h3.448v1.02h-5.097
					V271.29z"/>
			</g>
		</g>
		<g>
			<g>
				<path fill="#BE0926" d="M167.299,304.983c-0.04-0.869-0.09-1.919-0.08-2.828h-0.03c-0.22,0.819-0.5,1.729-0.8,2.578
					l-0.979,2.918h-0.949l-0.899-2.878c-0.26-0.859-0.5-1.778-0.68-2.618h-0.02c-0.03,0.879-0.07,1.949-0.12,2.868l-0.15,2.708
					h-1.149l0.45-6.736h1.619l0.88,2.709c0.24,0.789,0.45,1.59,0.62,2.339h0.03c0.18-0.729,0.41-1.56,0.669-2.349l0.93-2.699h1.599
					l0.39,6.736h-1.199L167.299,304.983z"/>
				<path fill="#BE0926" d="M171.171,305.823l-0.58,1.908h-1.269l2.159-6.736h1.569l2.188,6.736h-1.319l-0.609-1.908H171.171z
					 M173.1,304.893l-0.53-1.659c-0.13-0.409-0.24-0.87-0.34-1.259h-0.02c-0.1,0.389-0.2,0.859-0.32,1.259l-0.52,1.659H173.1z"/>
				<path fill="#BE0926" d="M176.182,301.084c0.46-0.079,1.149-0.139,1.859-0.139c0.97,0,1.629,0.159,2.079,0.539
					c0.37,0.311,0.58,0.779,0.58,1.35c0,0.869-0.59,1.459-1.219,1.689v0.029c0.479,0.18,0.77,0.649,0.939,1.299
					c0.21,0.84,0.39,1.619,0.53,1.879h-1.27c-0.1-0.199-0.26-0.749-0.45-1.589c-0.19-0.88-0.51-1.159-1.209-1.179h-0.62v2.768
					h-1.219V301.084z M177.401,304.063h0.73c0.83,0,1.349-0.439,1.349-1.109c0-0.739-0.52-1.079-1.319-1.079
					c-0.39,0-0.64,0.03-0.76,0.06V304.063z"/>
				<path fill="#BE0926" d="M183.101,300.995v6.736h-1.229v-6.736H183.101z"/>
				<path fill="#BE0926" d="M189.339,307.532c-0.29,0.15-0.93,0.3-1.739,0.3c-2.139,0-3.438-1.339-3.438-3.388
					c0-2.219,1.539-3.559,3.598-3.559c0.81,0,1.389,0.17,1.639,0.3l-0.27,0.979c-0.32-0.141-0.76-0.26-1.319-0.26
					c-1.369,0-2.359,0.859-2.359,2.479c0,1.479,0.87,2.429,2.349,2.429c0.5,0,1.019-0.101,1.339-0.25L189.339,307.532z"/>
				<path fill="#BE0926" d="M196.108,304.293c0,2.259-1.37,3.548-3.229,3.548c-1.899,0-3.098-1.449-3.098-3.429
					c0-2.068,1.299-3.527,3.198-3.527C194.949,300.885,196.108,302.375,196.108,304.293z M191.081,304.393
					c0,1.369,0.689,2.459,1.869,2.459c1.189,0,1.859-1.1,1.859-2.509c0-1.269-0.63-2.469-1.859-2.469
					C191.73,301.875,191.081,303.004,191.081,304.393z"/>
				<path fill="#BE0926" d="M197.171,301.084c0.44-0.079,1.049-0.139,1.879-0.139c0.9,0,1.56,0.189,1.989,0.549
					c0.399,0.33,0.66,0.859,0.66,1.489c0,0.64-0.2,1.169-0.58,1.529c-0.49,0.489-1.259,0.72-2.128,0.72c-0.23,0-0.44-0.01-0.6-0.04
					v2.538h-1.219V301.084z M198.391,304.223c0.15,0.04,0.35,0.051,0.6,0.051c0.919,0,1.479-0.45,1.479-1.24
					c0-0.749-0.52-1.148-1.369-1.148c-0.34,0-0.58,0.029-0.71,0.06V304.223z"/>
				<path fill="#BE0926" d="M203.401,305.823l-0.58,1.908h-1.269l2.159-6.736h1.569l2.188,6.736h-1.319l-0.609-1.908H203.401z
					 M205.33,304.893l-0.53-1.659c-0.13-0.409-0.24-0.87-0.34-1.259h-0.02c-0.1,0.389-0.2,0.859-0.32,1.259l-0.52,1.659H205.33z"/>
			</g>
		</g>
		<g>
			<g>
				<path fill="#BE0926" d="M110.944,125.513c-0.04-0.87-0.09-1.919-0.08-2.829h-0.03c-0.22,0.82-0.5,1.729-0.8,2.579l-0.979,2.918
					h-0.949l-0.899-2.878c-0.26-0.859-0.5-1.779-0.68-2.619h-0.02c-0.03,0.88-0.07,1.949-0.12,2.869l-0.15,2.708h-1.149l0.45-6.736
					h1.619l0.88,2.708c0.24,0.79,0.45,1.589,0.62,2.339h0.03c0.18-0.729,0.41-1.559,0.669-2.349l0.93-2.699h1.599l0.39,6.736h-1.199
					L110.944,125.513z"/>
				<path fill="#BE0926" d="M119.504,124.824c0,2.259-1.37,3.548-3.229,3.548c-1.899,0-3.098-1.449-3.098-3.428
					c0-2.069,1.299-3.528,3.198-3.528C118.345,121.416,119.504,122.905,119.504,124.824z M114.477,124.923
					c0,1.37,0.689,2.459,1.869,2.459c1.189,0,1.859-1.1,1.859-2.509c0-1.269-0.63-2.469-1.859-2.469
					C115.126,122.405,114.477,123.534,114.477,124.923z"/>
				<path fill="#BE0926" d="M121.797,121.525v2.699h2.849v-2.699h1.229v6.736h-1.229v-2.968h-2.849v2.968h-1.229v-6.736H121.797z"/>
				<path fill="#BE0926" d="M128.637,126.353l-0.58,1.909h-1.269l2.159-6.736h1.569l2.188,6.736h-1.319l-0.609-1.909H128.637z
					 M130.565,125.423l-0.53-1.659c-0.13-0.41-0.24-0.87-0.34-1.259h-0.02c-0.1,0.39-0.2,0.859-0.32,1.259l-0.52,1.659H130.565z"/>
				<path fill="#BE0926" d="M134.616,128.262l-2.179-6.736h1.339l0.919,3.059c0.26,0.849,0.48,1.639,0.66,2.458h0.02
					c0.18-0.8,0.42-1.619,0.689-2.439l0.979-3.078h1.31l-2.329,6.736H134.616z"/>
				<path fill="#BE0926" d="M142.855,125.273h-2.539v1.979h2.838v1.009h-4.068v-6.736h3.918v1.009h-2.688v1.739h2.539V125.273z"/>
			</g>
		</g>
		<g>
			<g>
				<path fill="#BE0926" d="M336.136,175.943v-6.736h1.398l1.74,2.889c0.449,0.75,0.84,1.529,1.148,2.258h0.021
					c-0.08-0.899-0.111-1.769-0.111-2.798v-2.349h1.141v6.736h-1.27l-1.76-2.958c-0.43-0.739-0.879-1.569-1.209-2.329l-0.029,0.01
					c0.049,0.869,0.059,1.759,0.059,2.868v2.409H336.136z"/>
				<path fill="#BE0926" d="M344.245,174.034l-0.58,1.909h-1.27l2.16-6.736h1.568l2.189,6.736h-1.32l-0.609-1.909H344.245z
					 M346.175,173.105l-0.531-1.659c-0.129-0.41-0.24-0.87-0.34-1.259h-0.02c-0.1,0.39-0.199,0.859-0.32,1.259l-0.52,1.659H346.175z
					"/>
				<path fill="#BE0926" d="M350.226,175.943l-2.18-6.736h1.34l0.92,3.058c0.26,0.85,0.479,1.639,0.658,2.459h0.021
					c0.18-0.8,0.418-1.619,0.689-2.439l0.979-3.078h1.309l-2.328,6.736H350.226z"/>
				<path fill="#BE0926" d="M355.495,174.034l-0.58,1.909h-1.27l2.16-6.736h1.568l2.189,6.736h-1.32l-0.609-1.909H355.495z
					 M357.425,173.105l-0.531-1.659c-0.129-0.41-0.24-0.87-0.34-1.259h-0.02c-0.1,0.39-0.199,0.859-0.32,1.259l-0.52,1.659H357.425z
					"/>
				<path fill="#BE0926" d="M362.015,169.207h1.23v4.368c0,1.859-0.9,2.479-2.24,2.479c-0.34,0-0.77-0.06-1.029-0.16l0.15-0.99
					c0.199,0.06,0.471,0.12,0.76,0.12c0.699,0,1.129-0.32,1.129-1.489V169.207z"/>
				<path fill="#BE0926" d="M370.573,172.505c0,2.259-1.369,3.548-3.229,3.548c-1.898,0-3.1-1.449-3.1-3.428
					c0-2.069,1.301-3.528,3.199-3.528C369.413,169.097,370.573,170.586,370.573,172.505z M365.546,172.605
					c0,1.37,0.689,2.459,1.869,2.459c1.189,0,1.857-1.1,1.857-2.509c0-1.269-0.629-2.469-1.857-2.469
					C366.194,170.086,365.546,171.216,365.546,172.605z"/>
			</g>
		</g>
		<g>
			<g>
				<path fill="#BE0926" d="M221.294,420.291c0.44-0.08,1.049-0.14,1.879-0.14c0.9,0,1.56,0.189,1.989,0.55
					c0.399,0.329,0.66,0.859,0.66,1.489c0,0.64-0.2,1.169-0.58,1.529c-0.49,0.489-1.259,0.719-2.128,0.719
					c-0.23,0-0.44-0.01-0.6-0.04v2.539h-1.219V420.291z M222.513,423.429c0.15,0.04,0.35,0.05,0.6,0.05
					c0.919,0,1.479-0.45,1.479-1.239c0-0.75-0.52-1.149-1.369-1.149c-0.34,0-0.58,0.03-0.71,0.06V423.429z"/>
				<path fill="#BE0926" d="M228.113,420.201v6.736h-1.229v-6.736H228.113z"/>
				<path fill="#BE0926" d="M235.211,424.189c-0.04-0.87-0.09-1.919-0.08-2.829h-0.03c-0.219,0.819-0.5,1.729-0.799,2.579
					l-0.98,2.918h-0.949l-0.899-2.878c-0.26-0.86-0.5-1.779-0.68-2.619h-0.02c-0.03,0.88-0.07,1.949-0.12,2.868l-0.15,2.709h-1.149
					l0.45-6.736h1.619l0.88,2.709c0.24,0.789,0.45,1.589,0.62,2.338h0.029c0.18-0.729,0.41-1.559,0.67-2.349l0.93-2.698h1.599
					l0.39,6.736h-1.199L235.211,424.189z"/>
				<path fill="#BE0926" d="M239.083,425.028l-0.58,1.909h-1.269l2.159-6.736h1.568l2.189,6.736h-1.32l-0.609-1.909H239.083z
					 M241.013,424.098l-0.53-1.658c-0.13-0.41-0.239-0.87-0.34-1.26h-0.021c-0.1,0.39-0.199,0.859-0.319,1.26l-0.52,1.658H241.013z"
					/>
			</g>
		</g>
		<g>
			<g>
				<path fill="#BE0926" d="M251.483,368.276c0.439-0.079,1.049-0.139,1.879-0.139c0.9,0,1.56,0.189,1.989,0.549
					c0.399,0.33,0.659,0.859,0.659,1.489c0,0.64-0.199,1.169-0.58,1.529c-0.489,0.489-1.259,0.72-2.128,0.72
					c-0.229,0-0.44-0.01-0.601-0.04v2.538h-1.219V368.276z M252.702,371.415c0.15,0.04,0.351,0.051,0.601,0.051
					c0.919,0,1.479-0.45,1.479-1.24c0-0.749-0.52-1.148-1.369-1.148c-0.34,0-0.58,0.029-0.711,0.06V371.415z"/>
				<path fill="#BE0926" d="M258.303,368.186v6.736h-1.229v-6.736H258.303z"/>
				<path fill="#BE0926" d="M259.714,374.922v-6.736h1.398l1.739,2.889c0.45,0.75,0.84,1.529,1.149,2.259h0.02
					c-0.079-0.899-0.109-1.769-0.109-2.798v-2.35h1.14v6.736h-1.27l-1.759-2.958c-0.43-0.739-0.88-1.569-1.209-2.329l-0.031,0.01
					c0.051,0.87,0.061,1.76,0.061,2.869v2.408H259.714z"/>
				<path fill="#BE0926" d="M267.823,373.014l-0.58,1.908h-1.27l2.158-6.736h1.57l2.188,6.736h-1.318l-0.609-1.908H267.823z
					 M269.751,372.084l-0.529-1.659c-0.13-0.409-0.24-0.87-0.34-1.259h-0.02c-0.1,0.389-0.2,0.859-0.32,1.259l-0.52,1.659H269.751z"
					/>
				<path fill="#BE0926" d="M272.833,368.186h1.229v5.707h2.769v1.029h-3.998V368.186z"/>
			</g>
		</g>
		<g>
			<g>
				<path fill="#BE0926" d="M270.505,467.267c0.32,0.184,0.801,0.344,1.305,0.344c0.631,0,0.982-0.296,0.982-0.735
					c0-0.408-0.271-0.648-0.959-0.896c-0.888-0.32-1.455-0.792-1.455-1.567c0-0.88,0.735-1.551,1.902-1.551
					c0.584,0,1.016,0.128,1.295,0.271l-0.239,0.791c-0.192-0.104-0.567-0.256-1.071-0.256c-0.623,0-0.896,0.336-0.896,0.648
					c0,0.415,0.312,0.607,1.031,0.887c0.936,0.353,1.392,0.824,1.392,1.6c0,0.863-0.656,1.615-2.047,1.615
					c-0.568,0-1.16-0.16-1.455-0.336L270.505,467.267z"/>
				<path fill="#BE0926" d="M275.761,466.811l-0.463,1.527h-1.016l1.727-5.389h1.256l1.75,5.389h-1.055l-0.488-1.527H275.761z
					 M277.304,466.068l-0.424-1.327c-0.104-0.328-0.191-0.696-0.271-1.008h-0.016c-0.08,0.312-0.16,0.688-0.256,1.008l-0.416,1.327
					H277.304z"/>
				<path fill="#BE0926" d="M279.77,468.338v-5.389h1.119l1.392,2.311c0.359,0.6,0.672,1.223,0.92,1.807h0.016
					c-0.064-0.72-0.088-1.415-0.088-2.238v-1.879h0.911v5.389h-1.016l-1.407-2.367c-0.344-0.591-0.703-1.255-0.967-1.862
					l-0.024,0.008c0.04,0.695,0.048,1.407,0.048,2.295v1.927H279.77z"/>
				<path fill="#BE0926" d="M286.209,463.773h-1.535v-0.823h4.069v0.823h-1.551v4.565h-0.983V463.773z"/>
				<path fill="#BE0926" d="M289.872,466.811l-0.463,1.527h-1.016l1.727-5.389h1.256l1.751,5.389h-1.056l-0.488-1.527H289.872z
					 M291.416,466.068l-0.424-1.327c-0.104-0.328-0.192-0.696-0.272-1.008h-0.016c-0.08,0.312-0.16,0.688-0.256,1.008l-0.416,1.327
					H291.416z"/>
				<path fill="#BE0926" d="M276.527,477.778c-0.231,0.12-0.743,0.24-1.392,0.24c-1.711,0-2.75-1.071-2.75-2.711
					c0-1.774,1.23-2.846,2.879-2.846c0.646,0,1.111,0.136,1.311,0.239l-0.216,0.784c-0.256-0.112-0.608-0.208-1.056-0.208
					c-1.096,0-1.887,0.688-1.887,1.982c0,1.184,0.695,1.943,1.879,1.943c0.4,0,0.815-0.08,1.071-0.2L276.527,477.778z"/>
				<path fill="#BE0926" d="M277.37,472.621c0.367-0.063,0.919-0.111,1.486-0.111c0.775,0,1.303,0.128,1.663,0.432
					c0.296,0.248,0.464,0.623,0.464,1.079c0,0.695-0.472,1.168-0.976,1.352v0.023c0.384,0.145,0.616,0.521,0.752,1.04
					c0.167,0.671,0.312,1.295,0.423,1.503h-1.015c-0.08-0.16-0.208-0.6-0.36-1.271c-0.151-0.703-0.407-0.928-0.967-0.943h-0.496
					v2.215h-0.975V472.621z M278.345,475.003h0.584c0.664,0,1.079-0.352,1.079-0.888c0-0.592-0.415-0.863-1.056-0.863
					c-0.312,0-0.512,0.024-0.607,0.048V475.003z"/>
				<path fill="#BE0926" d="M282.864,472.549v3.142c0,1.056,0.44,1.544,1.104,1.544c0.713,0,1.136-0.488,1.136-1.544v-3.142h0.983
					v3.078c0,1.663-0.855,2.398-2.15,2.398c-1.248,0-2.055-0.695-2.055-2.391v-3.086H282.864z"/>
				<path fill="#BE0926" d="M286.857,477.394l2.759-4.006v-0.023h-2.512v-0.815h3.791v0.575l-2.719,3.966v0.032h2.758v0.815h-4.077
					V477.394z"/>
			</g>
		</g>
		<g>
			<g>
				<path fill="#BE0926" d="M188.224,218.328v-2.809l-2.129-3.928h1.399l0.81,1.729c0.23,0.5,0.4,0.879,0.58,1.339h0.02
					c0.17-0.43,0.36-0.85,0.59-1.339l0.809-1.729h1.39l-2.239,3.898v2.838H188.224z"/>
				<path fill="#BE0926" d="M192.924,216.418l-0.58,1.909h-1.269l2.159-6.736h1.569l2.188,6.736h-1.319l-0.609-1.909H192.924z
					 M194.853,215.489l-0.53-1.659c-0.13-0.41-0.24-0.87-0.34-1.259h-0.02c-0.1,0.39-0.2,0.859-0.32,1.259l-0.52,1.659H194.853z"/>
				<path fill="#BE0926" d="M198.904,218.328l-2.179-6.736h1.339l0.919,3.059c0.26,0.849,0.48,1.639,0.66,2.458h0.02
					c0.18-0.8,0.42-1.619,0.689-2.439l0.979-3.078h1.31l-2.329,6.736H198.904z"/>
				<path fill="#BE0926" d="M204.174,216.418l-0.58,1.909h-1.269l2.159-6.736h1.569l2.188,6.736h-1.319l-0.609-1.909H204.174z
					 M206.103,215.489l-0.53-1.659c-0.13-0.41-0.24-0.87-0.34-1.259h-0.02c-0.1,0.39-0.2,0.859-0.32,1.259l-0.52,1.659H206.103z"/>
				<path fill="#BE0926" d="M209.185,211.681c0.44-0.08,1.05-0.14,1.879-0.14c0.9,0,1.56,0.19,1.989,0.55
					c0.399,0.33,0.66,0.859,0.66,1.489c0,0.64-0.2,1.169-0.58,1.529c-0.49,0.49-1.259,0.72-2.128,0.72c-0.23,0-0.44-0.01-0.6-0.04
					v2.539h-1.219V211.681z M210.404,214.819c0.15,0.04,0.35,0.05,0.6,0.05c0.919,0,1.479-0.45,1.479-1.239
					c0-0.75-0.52-1.149-1.369-1.149c-0.34,0-0.58,0.03-0.71,0.06V214.819z"/>
				<path fill="#BE0926" d="M215.414,216.418l-0.58,1.909h-1.269l2.159-6.736h1.569l2.188,6.736h-1.319l-0.609-1.909H215.414z
					 M217.343,215.489l-0.53-1.659c-0.13-0.41-0.24-0.87-0.34-1.259h-0.02c-0.1,0.39-0.2,0.859-0.32,1.259l-0.52,1.659H217.343z"/>
				<path fill="#BE0926" d="M221.654,211.591v6.736h-1.229v-6.736H221.654z"/>
			</g>
		</g>
		<g>
			<g>
				<path fill="#BE0926" d="M91.112,343.688v-2.809l-2.129-3.928h1.399l0.81,1.729c0.23,0.5,0.399,0.88,0.58,1.339h0.02
					c0.17-0.43,0.36-0.85,0.59-1.339l0.81-1.729h1.389l-2.239,3.898v2.838H91.112z"/>
				<path fill="#BE0926" d="M96.552,336.952v3.928c0,1.32,0.55,1.93,1.379,1.93c0.89,0,1.419-0.609,1.419-1.93v-3.928h1.229v3.849
					c0,2.079-1.069,2.998-2.688,2.998c-1.559,0-2.568-0.87-2.568-2.988v-3.858H96.552z"/>
				<path fill="#BE0926" d="M107.679,340.94c-0.04-0.869-0.09-1.919-0.08-2.828h-0.03c-0.22,0.819-0.5,1.729-0.8,2.578l-0.979,2.918
					h-0.949l-0.899-2.878c-0.26-0.859-0.5-1.778-0.68-2.618h-0.02c-0.03,0.879-0.07,1.949-0.12,2.868l-0.15,2.708h-1.149l0.45-6.736
					h1.619l0.88,2.709c0.24,0.789,0.45,1.59,0.62,2.339h0.03c0.18-0.729,0.41-1.56,0.669-2.349l0.93-2.699h1.599l0.39,6.736h-1.199
					L107.679,340.94z"/>
				<path fill="#BE0926" d="M111.552,341.78l-0.58,1.908h-1.269l2.159-6.736h1.569l2.188,6.736H114.3l-0.609-1.908H111.552z
					 M113.48,340.85l-0.53-1.659c-0.13-0.409-0.24-0.87-0.34-1.259h-0.02c-0.1,0.389-0.2,0.859-0.32,1.259l-0.52,1.659H113.48z"/>
			</g>
		</g>
	</g>
</g>
<g id="flag">
	<g>
		<g>
			<g>
				<polygon fill="#F7E02A" points="57.69,455.647 49.321,455.628 50.283,456.325 16.855,448.187 16.855,434.286 				"/>
			</g>
			<g>
				<polygon fill="#F7E02A" points="62.609,454.571 62.259,455.657 60.669,455.653 28.729,427.038 43.251,427.038 				"/>
			</g>
			<g>
				<polygon fill="#F7E02A" points="62.241,427.038 64.867,447.572 64.867,447.573 63.212,452.703 53.635,427.038 				"/>
			</g>
			<g>
				<polygon fill="#F7E02A" points="78.873,427.038 69.249,452.703 67.593,447.57 70.226,427.038 				"/>
			</g>
			<g>
				<polygon fill="#F7E02A" points="103.738,427.038 71.798,455.653 70.201,455.657 69.851,454.571 89.175,427.038 				"/>
			</g>
			<g>
				<polygon fill="#F7E02A" points="115.653,434.286 115.653,448.187 82.229,456.287 83.139,455.628 74.984,455.645 				"/>
			</g>
			<g>
				<polygon fill="#C31C44" points="115.653,448.187 115.653,459.958 77.154,459.958 82.229,456.287 				"/>
			</g>
			<g>
				<polygon fill="#C31C44" points="115.653,427.038 115.653,434.286 74.984,455.645 71.798,455.653 103.738,427.038 				"/>
			</g>
			<g>
				<polygon fill="#C31C44" points="89.175,427.038 69.851,454.571 69.249,452.703 78.873,427.038 				"/>
			</g>
			<g>
				<polygon fill="#C31C44" points="70.226,427.038 67.593,447.57 66.23,443.343 64.867,447.572 62.241,427.038 				"/>
			</g>
			<g>
				<polygon fill="#C31C44" points="53.635,427.038 63.212,452.703 62.609,454.571 43.251,427.038 				"/>
			</g>
			<g>
				<polygon fill="#C31C44" points="60.669,455.653 57.69,455.647 16.855,434.286 16.855,427.038 28.729,427.038 				"/>
			</g>
			<g>
				<polygon fill="#C31C44" points="50.283,456.325 55.331,459.975 16.855,459.975 16.855,448.187 				"/>
			</g>
			<g>
				<polygon fill="#CF712D" points="83.139,455.628 82.229,456.287 77.154,459.958 72.656,463.21 76.68,475.506 66.23,467.878 
					55.78,475.506 59.805,463.21 55.331,459.975 50.283,456.325 49.321,455.628 57.69,455.647 60.669,455.653 62.259,455.657 
					62.609,454.571 63.212,452.703 64.867,447.573 64.867,447.572 66.23,443.343 67.593,447.57 69.249,452.703 69.851,454.571 
					70.201,455.657 71.798,455.653 74.984,455.645 				"/>
			</g>
			<g>
				<polygon fill="#26307B" points="115.653,459.958 115.653,492.877 16.855,492.877 16.855,459.975 55.331,459.975 59.805,463.21 
					55.78,475.506 66.23,467.878 76.68,475.506 72.656,463.21 77.154,459.958 				"/>
			</g>
		</g>
		<g>
			
				<rect x="16.855" y="427.038" fill="none" stroke="#000000" stroke-width="0.1759" stroke-miterlimit="10" width="98.797" height="65.839"/>
		</g>
	</g>
</g>
<g id="rand">
	<g>
		<rect x="0.5" y="0.5" fill="none" stroke="#FFFFFF" stroke-miterlimit="10" width="462.75" height="526.47"/>
	</g>
</g>
</svg>
